<?xml version="1.0" encoding="UTF-8"?><svg id="_レイヤー_1" xmlns="http://www.w3.org/2000/svg" viewBox="0 0 464.25 72"><defs><style>.cls-1{fill:#0d26b8;}</style></defs><polygon class="cls-1" points="0 17.77 0 35.53 0 36.47 0 54.23 0 72 12.47 72 12.47 54.23 12.47 36.47 12.47 35.53 12.47 17.77 12.47 0 0 0 0 17.77"/><polygon class="cls-1" points="19.78 17.77 19.78 36.47 19.78 54.23 32.25 54.23 32.25 36.47 32.25 17.77 32.25 0 19.78 0 19.78 17.77"/><rect class="cls-1" x="67.78" y="17.77" width="12.47" height="36.47"/><rect class="cls-1" x="96" y="35.53" width="12.47" height="36.47"/><polygon class="cls-1" points="115.78 35.53 115.78 54.23 115.78 72 128.25 72 128.25 54.23 128.25 35.53 128.25 17.77 115.78 17.77 115.78 35.53"/><polygon class="cls-1" points="144 17.77 144 36.47 144 54.23 156.47 54.23 156.47 36.47 156.47 17.77 156.47 0 144 0 144 17.77"/><polygon class="cls-1" points="163.78 17.77 163.78 35.53 163.78 36.47 163.78 54.23 163.78 72 176.25 72 176.25 54.23 176.25 36.47 176.25 35.53 176.25 17.77 176.25 0 163.78 0 163.78 17.77"/><polygon class="cls-1" points="192 35.53 192 36.47 192 72 204.47 72 204.47 36.47 204.47 35.53 204.47 0 192 0 192 35.53"/><polygon class="cls-1" points="211.78 17.77 211.78 36.47 211.78 54.23 224.25 54.23 224.25 36.47 224.25 17.77 224.25 0 211.78 0 211.78 17.77"/><polygon class="cls-1" points="240 35.53 240 54.23 240 72 252.47 72 252.47 54.23 252.47 35.53 252.47 17.77 240 17.77 240 35.53"/><rect class="cls-1" x="259.78" width="12.47" height="36.47"/><polygon class="cls-1" points="288 35.53 288 54.23 288 72 300.47 72 300.47 54.23 300.47 35.53 300.47 17.77 288 17.77 288 35.53"/><polygon class="cls-1" points="307.78 17.77 307.78 36.47 307.78 54.23 320.25 54.23 320.25 36.47 320.25 17.77 320.25 0 307.78 0 307.78 17.77"/><polygon class="cls-1" points="336 17.77 336 35.53 336 36.47 336 54.23 336 72 348.47 72 348.47 54.23 348.47 36.47 348.47 35.53 348.47 17.77 348.47 0 336 0 336 17.77"/><rect class="cls-1" x="355.78" y="17.77" width="12.47" height="36.47"/><rect class="cls-1" x="384" y="35.53" width="12.47" height="36.47"/><polygon class="cls-1" points="403.78 35.53 403.78 36.47 403.78 72 416.25 72 416.25 36.47 416.25 35.53 416.25 0 403.78 0 403.78 35.53"/><rect class="cls-1" x="432" width="12.47" height="36.47"/><rect class="cls-1" x="451.78" width="12.47" height="36.47"/></svg>