<?xml version="1.0" encoding="UTF-8"?><svg id="_レイヤー_1" xmlns="http://www.w3.org/2000/svg" viewBox="0 0 616.13 129.3"><defs><style>.cls-1{fill:#0d26b8;}</style></defs><path class="cls-1" d="M57.72,77.43c-.14-1.81-.35-3.21-.63-4.21-.28-1-.63-1.21-1.05-.65-.25.31-.49,1.25-.71,2.8-.22,1.56-.45,3.27-.67,5.14-.22,1.87-.46,3.64-.69,5.33-.24,1.68-.48,2.8-.73,3.36-.31.62-.77,1.21-1.38,1.78-.62.56-1.29,1.03-2.03,1.4-.74.37-1.5.59-2.29.65-.78.06-1.5-.08-2.16-.42-.66-.34-1.2-.93-1.64-1.78-.43-.84-.66-2.01-.69-3.5-.03-1.31-.07-3.19-.13-5.65-.06-2.46-.12-5.19-.19-8.18-.07-2.99-.13-6.09-.19-9.3-.06-3.21-.1-6.23-.13-9.06-.03-2.83-.02-5.31.02-7.43.04-2.12.12-3.55.23-4.3.25-1.56.55-2.58.9-3.08.35-.5.74-.76,1.17-.79.43-.03.89.05,1.36.23.48.19.96.22,1.47.09.5-.12.85-.62,1.05-1.5.2-.87.27-1.82.23-2.85s-.17-1.99-.38-2.9c-.21-.9-.46-1.45-.73-1.64-.33-.2-.97-.25-1.95-.18-.76.06-1.52.08-2.27.08-.82,0-1.54-.01-2.18-.05-.67-.04-1.34-.05-2.01-.05s-1.27,0-1.27,0c-.56,0-1.19.03-1.89.09-.5.06-.99.08-1.45.05-.46-.03-.9-.05-1.32-.05s-.81.06-1.17.19c-.36.13-.7.37-1.01.75-1.17,1.31-1.93,2.31-2.26,2.99-.33.69-.32,1.25.04,1.68.36.44,1.05.87,2.05,1.31,1.01.44,2.26,1.06,3.77,1.87.98,1.62,1.59,3.47,1.82,5.56.24,2.09.31,4.27.21,6.54-.1,2.27-.26,4.58-.48,6.92-.22,2.34-.29,4.53-.21,6.59.08,2.31.18,4.49.29,6.54.11,2.06.18,4.1.21,6.12.03,2.03-.01,4.08-.13,6.17-.11,2.09-.36,4.28-.75,6.59-.14.75-.38,1.37-.73,1.87-.35.5-.74.95-1.17,1.35-.43.41-.87.79-1.3,1.17-.43.37-.78.81-1.03,1.31-.14.93-.08,1.62.19,2.06.26.44.65.7,1.15.79.5.09,1.08.11,1.74.05.66-.06,1.32-.12,1.99-.19.67-.06,1.29-.05,1.87.05.29.05.54.13.76.25.4.21.84.37,1.28.29.68-.12,1.41-.16,2.21-.11,1.09.06,2.22.16,3.4.28,1.17.12,2.35.25,3.52.37,1.17.12,2.27.14,3.29.05,1.02-.09,1.94-.33,2.75-.7.81-.37,1.44-.96,1.89-1.78.08-.19.16-1.01.23-2.48.07-1.46.12-3.22.17-5.28.04-2.06.04-4.22,0-6.49-.04-2.27-.13-4.31-.27-6.12Z"/><path class="cls-1" d="M88.52,75.51c-.38-.9-.97-1.14-1.78-.7-.39,1.62-.75,3.13-1.09,4.53-.33,1.4-.68,2.74-1.03,4.02-.35,1.28-.73,2.56-1.15,3.83-.42,1.28-.89,2.57-1.42,3.88-.28.19-.59.39-.94.61-.35.22-.7.48-1.05.79-.35.31-.69.65-1.01,1.03-.16.19-.31.37-.45.56-.22.3-.57.45-.94.44-.15,0-.32,0-.5.03-.43.06-.87.13-1.3.19-.43.06-.85.05-1.24-.05-.39-.09-.69-.36-.88-.79-.39-.81-.75-2.21-1.07-4.21-.32-1.99-.59-4.17-.8-6.54-.21-2.37-.34-4.73-.38-7.1-.04-2.37.03-4.41.21-6.12.18-1.71.5-2.88.94-3.5.45-.62,1.05-.37,1.8.75h1.13c.11.31.34.84.69,1.59s.73,1.53,1.13,2.34c.41.81.78,1.54,1.11,2.2.33.65.57,1.07.71,1.26l1.09-.37c.03-1.12.02-2.21-.02-3.27-.04-1.06-.1-2.09-.17-3.08-.07-1-.13-1.99-.19-2.99-.06-1-.08-2.02-.08-3.08.03-.93.11-2.13.25-3.6.14-1.46.25-2.94.33-4.44s.1-2.9.04-4.21c-.06-1.31-.29-2.27-.71-2.9-.39-.62-.71-.48-.94.42-.24.9-.43,2.06-.59,3.46-.15,1.4-.29,2.79-.42,4.16-.13,1.37-.29,2.21-.48,2.52-.25.37-.63.9-1.13,1.59-.5.69-1.02,1.25-1.55,1.68-.53.44-1.02.61-1.47.51-.45-.09-.71-.7-.8-1.82-.39-4.49-.62-8.28-.67-11.4-.06-3.11.22-5.53.82-7.24.6-1.71,1.61-2.74,3.02-3.08.68-.16,1.48-.17,2.41-.03,2.03.31,3.71,1.73,4.45,3.65.27.69.54,1.37.82,2.04.63,1.5,1.22,3.05,1.78,4.67.17.5.3,1.09.4,1.78.1.69.2,1.37.29,2.06.1.69.21,1.37.34,2.06.13.69.3,1.31.52,1.87.06.13.14.27.25.42.11.16.23.28.36.37.13.09.24.09.34,0,.1-.09.17-.29.23-.61.03-.31.05-1.07.06-2.29.01-1.21,0-2.65-.02-4.3-.03-1.65-.06-3.41-.11-5.28-.04-1.87-.09-3.61-.15-5.23-.06-1.62-.13-2.97-.21-4.06-.08-1.09-.15-1.73-.21-1.92-.53-1.12-.99-1.81-1.36-2.06-.38-.25-.74-.28-1.09-.09s-.71.44-1.07.75c-.36.31-.8.44-1.3.37-.28,0-.56-.11-.84-.33-.28-.22-.56-.45-.84-.7-.28-.25-.56-.44-.84-.56-.28-.12-.57-.09-.88.09-.73.44-1.43.83-2.12,1.17-.69.34-1.36.53-2.01.56-.66.03-1.31-.12-1.97-.47-.38-.2-.76-.5-1.14-.9-.54-.57-1.31-.84-2.1-.83-.04,0-.09,0-.13,0h-2.01c-.73,0-1.47.03-2.24.09-.77.06-1.47.23-2.1.51-.63.28-1.15.72-1.55,1.31-.41.59-.61,1.42-.61,2.48,0,1.81.13,2.91.4,3.32.27.41.58.61.94.61.39,0,.81-.01,1.26-.05.45-.03.84.36,1.17,1.17.34.87.62,2.71.86,5.51s.43,6.07.57,9.81c.14,3.74.22,7.69.23,11.87.01,4.17-.02,8.08-.1,11.73-.08,3.64-.22,6.76-.4,9.34-.18,2.59-.41,4.16-.69,4.72-.28.56-.58.92-.9,1.07-.32.16-.66.31-1.01.47-.35.16-.7.41-1.05.75-.35.34-.69.95-1.03,1.82-.06,1.31.16,2.21.65,2.71.49.5,1.06.72,1.72.65.66-.06,1.32-.29,1.99-.7.36-.21.66-.45.91-.71.38-.39.93-.52,1.43-.29.36.16.77.33,1.23.49.87.31,1.77.55,2.71.7.94.16,1.82.14,2.64-.05.82-.19,2.87-.56,2.87-.56.36-.12.84-.22,1.45-.28.6-.06,1.22-.09,1.87-.09s1.32.02,1.95.05c.63.03,1.14.08,1.53.14.25.06.46.28.63.65.17.37.34.75.52,1.12.18.37.41.67.67.89.27.22.62.2,1.07-.05.11-.62.3-1.76.57-3.41.26-1.65.52-3.52.78-5.61.25-2.09.47-4.24.65-6.45.18-2.21.25-4.17.19-5.89-.06-1.71-.27-3.02-.65-3.92Z"/><path class="cls-1" d="M123.34,67.06c-.17-.69-.52-1.17-1.07-1.45-.55-.28-1.14-.42-1.78-.42s-1.22.08-1.82.23c-.6.16-1.06.36-1.36.61-.73-.62-1.23-.97-1.51-1.03-.28-.06-.49.03-.63.28-.14.25-.31.56-.5.93-.2.37-.59.65-1.17.84-.2-.25-.48-.45-.84-.61-.36-.15-.71-.19-1.05-.09-.33.09-.62.34-.84.75-.22.41-.31,1.01-.25,1.82.2.5.45,1.11.78,1.82.32.72.64,1.5.94,2.34.31.84.58,1.67.82,2.48.24.81.38,1.53.44,2.15.06.75.08,1.74.08,2.99s-.04,2.48-.1,3.88c-.07,1.4-.18,2.79-.33,4.16-.15,1.37-.36,2.56-.63,3.55-.27,1-.59,1.71-.99,2.15-.39.44-.77-.3-1.39.23-.17.31-.49.22-1.05.38-.56.16-1.17.2-1.82.14-.66-.06-1.28-.19-1.87-.37s-.98-.47-1.17-.84c-.75-1.31-1.39-3.24-1.91-5.79-.52-2.55-.91-5.43-1.17-8.64-.27-3.21-.42-6.62-.46-10.23-.04-3.61.03-7.15.21-10.61s.48-6.73.88-9.81c.41-3.08.91-5.67,1.51-7.76.6-2.09,1.29-3.57,2.08-4.44.63-.7,1.33-.82,2.09-.35.32.2.72.14.99-.13.48-.5.97-.54,1.48-.13.66.53,1.3,1.46,1.93,2.8.63,1.34,1.23,2.96,1.8,4.86.57,1.9,1.09,3.71,1.55,5.42.46,1.71.86,3.21,1.2,4.49.34,1.28.33,2.1.71,2.1.44,0,.49-1.14.71-2.48.22-1.34.41-2.94.57-4.81.15-1.87.26-3.83.33-5.89.07-2.06.08-3.99.02-5.79-.06-1.81-.19-3.32-.4-4.53-.12-.7-.27-1.22-.45-1.55-.16-.29-.58-.31-.81-.06-1.27,1.39-2.23,2.24-2.87,2.55-.7.34-1.23.33-1.59-.05-.36-.37-.68-.95-.94-1.73-.27-.78-.68-1.43-1.24-1.96-.56-.53-1.38-.78-2.45-.75-1.08.03-2.62.61-4.63,1.73-.48.25-.87.83-1.17,1.73-.31.9-.64,1.6-1.01,2.1-1.15,1.56-2.08,3.08-2.81,4.58-.73,1.5-1.31,3.1-1.76,4.81-.45,1.71-.8,3.61-1.05,5.7-.25,2.09-.5,4.47-.75,7.15-.08.75-.2,1.46-.33,2.15-.14.69-.29,1.39-.46,2.1-.17.72-.31,1.45-.44,2.2-.13.75-.2,1.59-.23,2.52-.06,1.68-.03,3.52.08,5.51.11,1.99.29,4,.54,6.03.25,2.02.58,3.94.99,5.75.41,1.81.89,3.3,1.45,4.49,1.01,2.24,1.77,3.99,2.29,5.23.52,1.25.93,2.23,1.24,2.94.31.72.57,1.26.8,1.64.22.37.55.78.99,1.21.43.44,1.04,1.01,1.82,1.73.62.57,1.43,1.36,2.44,2.37.4.4,1.02.59,1.53.34.26-.12.53-.2.83-.23.6-.06,1.18-.19,1.74-.37.56-.19,1.07-.53,1.53-1.03.46-.5.64-.55.78-1.86.24-.77.54-1.02.71-1.36.17-.34.33-.72.48-1.12.1-.27.21-.5.32-.71.08,1,.24,1.82.48,2.44.29.75.63,1.28,1.03,1.59.39.31.8.4,1.24.28.43-.13.8-.47,1.11-1.03s.52-1.29.65-2.2c.12-.9.08-1.98-.15-3.22.17-.75.28-1.67.34-2.76.06-1.09.1-2.23.13-3.41.03-1.18.06-2.37.08-3.55.03-1.18.11-2.24.25-3.18-.31-2.55-.33-4.38-.06-5.47.26-1.09.65-1.84,1.15-2.24.5-.4,1.05-.67,1.64-.79.59-.12,1.06-.5,1.43-1.12.31-.5.45-1.17.44-2.01-.01-.84-.11-1.6-.27-2.29Z"/><path class="cls-1" d="M188.19,29.12c-.38-.37-.82-.48-1.32-.33-.5.16-1.03.39-1.59.7-.56.31-.64-.08-1.59.08-.49.21-.64.28-1.17.25-.53-.03-1.12-.11-1.76-.23-.64-.12-1.28-.22-1.91-.28-.63-.06-1.16,0-1.59.19s-.73.58-.9,1.17c-.17.59-.08,1.51.25,2.76.31,1.18.75,2.09,1.34,2.71.59.62,1.16,1.23,1.72,1.82.56.59,1.04,1.28,1.45,2.06.41.78.59,1.88.57,3.32-.17,5.48-.28,11.01-.34,16.59-.06,5.58.04,11.14.29,16.68,0,.31-.04.34-.1.09-.07-.25-.15-.59-.23-1.03-.08-.44-.17-.89-.25-1.35s-.14-.76-.17-.89c-.08-.44-.2-1.07-.36-1.92-.15-.84-.32-1.68-.5-2.52-.18-.84-.36-1.64-.54-2.38-.18-.75-.36-1.25-.52-1.5-.08-.12-.33-.84-.75-2.15-.42-1.31-.92-2.88-1.51-4.72-.59-1.84-1.21-3.82-1.87-5.93-.66-2.12-1.27-4.11-1.82-5.98-.56-1.87-1.03-3.46-1.4-4.77-.38-1.31-.58-2.09-.61-2.34-.06-.31-.08-.93-.08-1.87s-.04-1.87-.1-2.8c-.07-.93-.17-1.74-.31-2.43-.14-.69-.35-.93-.63-.75l-1.01.84c-.59-1-1.19-1.7-1.8-2.1-.62-.4-1.24-.62-1.87-.65-.63-.03-1.25.05-1.87.23-.62.19-1.22.34-1.8.47-.48.13-.96,0-1.45-.37-.49-.37-.94-.58-1.36-.61-.42-.03-.78.25-1.07.84-.29.59-.45,1.85-.48,3.78-.03,1.56.07,2.7.29,3.41.22.72.52,1.21.88,1.5.36.28.78.44,1.24.47.46.03.92.11,1.36.23.45.13.86.39,1.24.79.38.41.65,1.14.82,2.2.31,1.81.61,3.68.92,5.61.31,1.93.5,3.89.59,5.89.06,1.43-.03,2.85-.25,4.25-.22,1.4-.31,2.82-.25,4.25.03.81.1,1.84.21,3.08.11,1.25.2,2.54.27,3.88.07,1.34.11,2.62.13,3.83.01,1.21-.05,2.13-.19,2.76-.2,1-.33,1.76-.42,2.29-.08.53-.14,1.01-.17,1.45-.03.44-.04.93-.02,1.5.01.56.02,1.37.02,2.43.03,1.43-.1,2.54-.4,3.32-.29.78-.66,1.37-1.11,1.78-.45.41-.94.75-1.47,1.03-.53.28-1.03.64-1.49,1.07-.46.44-.85,1.06-1.15,1.87-.31.81-.46,1.96-.46,3.46,0,.93.35,1.68,1.05,2.24.7.56,1.58.97,2.64,1.21,1.06.25,2.21.33,3.44.23,1.23-.09,2.39-.33,3.48-.7,1.09-.37,2.01-.92,2.75-1.64.74-.72,1.14-1.57,1.19-2.57.06-1,0-1.68-.17-2.06-.17-.37-.41-.65-.71-.84-.31-.19-.65-.36-1.03-.51-.38-.15-.75-.48-1.13-.98-.38-.5-.72-1.25-1.03-2.24-.31-1-.53-2.46-.67-4.39-.06-.69-.13-1.84-.21-3.46-.08-1.62-.17-3.46-.25-5.51-.08-2.06-.16-4.21-.23-6.45-.07-2.24-.1-4.3-.1-6.17s.04-3.55.13-4.86c.08-1.31.22-2.09.42-2.34.31-.37.62-.59.94-.65.32-.06.62.19.9.75.25.56.68,1.71,1.28,3.46.6,1.74,1.28,3.82,2.03,6.21.75,2.4,1.54,4.97,2.37,7.71.82,2.74,1.59,5.36,2.31,7.85.71,2.49,1.33,4.72,1.85,6.68.52,1.96.83,3.38.94,4.25.06.5.25,1.37.59,2.62.33,1.25.72,2.43,1.15,3.55.43,1.12.86,1.93,1.28,2.43.42.5.75.22,1.01-.84.14-.68.24-2.12.29-4.3.06-2.18.08-4.77.06-7.76s-.06-6.21-.12-9.67c-.07-3.46-.14-6.76-.21-9.91-.07-3.15-.13-5.96-.19-8.46-.06-2.49-.1-4.33-.13-5.51,0-.93.02-2.06.06-3.36.04-1.31.13-2.63.25-3.97.13-1.34.29-2.62.5-3.83.21-1.21.45-2.16.73-2.85.22-.56.56-1.07,1.01-1.54s.89-.97,1.32-1.5c.43-.53.8-1.14,1.11-1.82.31-.69.42-1.5.34-2.43-.14-1.68-.4-2.71-.78-3.08Z"/><path class="cls-1" d="M220.22,51.22c-.49-2.09-1.01-4.08-1.55-5.98-.55-1.9-1.13-3.78-1.74-5.65-.57-1.74-1.22-3.56-1.94-5.46-.1-.27-.29-.52-.53-.68-1.03-.7-1.97-1.34-2.83-1.89-.76-.49-1.6-.69-2.51-.6-.39.04-.8-.04-1.09-.29-.24-.2-.57-.39-.99-.56-.7-.28-1.53-.48-2.5-.61-.96-.12-2.01-.2-3.12-.23-1.12-.03-2.18-.01-3.19.05-1.01.06-1.89.17-2.64.33-.75.16-1.27.36-1.55.61-.25-.19-.55-.31-.9-.37-.35-.06-.68-.01-.99.14-.31.16-.57.45-.8.89-.22.44-.35,1.09-.38,1.96.48,1.99.87,3.22,1.17,3.69.31.47.59.65.84.56.25-.09.5-.22.75-.37.25-.15.56.08.92.7.5.87.89,2.59,1.15,5.14.26,2.56.44,5.55.52,8.97.08,3.43.1,7.09.04,10.98-.06,3.89-.14,7.65-.25,11.26-.11,3.61-.25,6.87-.4,9.77-.15,2.9-.3,5.03-.44,6.4-.14,1.75-.41,2.85-.82,3.32-.41.47-.82.75-1.24.84-.42.09-.8.25-1.15.47-.35.22-.55.95-.61,2.2-.06,1.18.33,2.06,1.17,2.62.84.56,1.91.95,3.23,1.17,1.31.22,2.76.26,4.34.14,1.58-.13,3.1-.33,4.57-.61s2.78-.58,3.94-.89c1.16-.31,1.95-.59,2.37-.84.89.62,1.83.31,2.81-.93.98-1.25,1.93-3.07,2.85-5.47.92-2.4,1.77-5.15,2.54-8.27.77-3.11,1.4-6.28,1.91-9.48.5-3.21.82-6.24.94-9.11.13-2.86,0-5.2-.4-7.01-.53-2.49-1.04-4.78-1.53-6.87ZM215.33,72.85c-.03,2.18-.08,4.06-.17,5.65-.08,1.59-.18,2.57-.29,2.94-.25.81-.49,1.68-.71,2.62-.22.93-.44,1.87-.65,2.8-.21.93-.45,1.84-.71,2.71-.27.87-.57,1.62-.9,2.24-.28.56-.57,1.14-.88,1.73-.31.59-.56,1.29-.75,2.1-.64.31-1.23.45-1.76.42-.53-.03-1.12-.11-1.76-.23-.39-.87-.77-1.29-1.13-1.26-.36.03-.78.27-1.26.7-.45-.62-.89-1.31-1.32-2.06s-.68-1.74-.73-2.99l-.63-18.69c.25-1.93.41-3.78.46-5.56s.06-3.66,0-5.65c0-.93-.05-1.93-.15-2.99-.1-1.06-.19-2.12-.27-3.18-.08-1.06-.15-2.1-.21-3.13-.06-1.03-.06-2.01,0-2.94.06-1.12.15-2.41.29-3.88.14-1.46.31-2.72.5-3.78.2-1.06.52-1.81.96-2.24.45-.44.36-.95,1.17-1.08.51-.09.57-.13,1.2.05.63.19,1.33.33,2.1.42.77.09,1.49.17,2.16.23.38.04.69.05.91.05.27,0,.53.11.69.33.27.36.52.76.73,1.2.06.13.1.28.12.43.11.97.27,1.85.48,2.63.22.84.46,1.68.71,2.52s.5,1.7.73,2.57c.24.87.4,1.81.48,2.8.11.37.22,1.34.31,2.9.1,1.56.17,3.43.21,5.61.04,2.18.07,4.52.08,7.01.01,2.49,0,4.83-.02,7.01Z"/><path class="cls-1" d="M248.25,69.49c-.4-1.37-.66-2.86-.78-4.49l-3.35-6.35c-.21-.25-.47-.37-.78-.37h-1.01c-.37,0-.77-.08-1.21-.23-.44-.15-.92-.51-1.44-1.07-.21-.25-.47-.44-.76-.56-.29-.12-.58-.25-.87-.37-.29-.12-.56-.25-.8-.37-.25-.12-.44-.31-.6-.56-.25-.37-.43-.84-.55-1.4s-.34-1-.64-1.31c-.34-.31-.65-.45-.94-.42-.29.03-.58.03-.87,0-.29-.03-.57-.2-.85-.51-.27-.31-.53-1.03-.78-2.15-.7-2.86-.96-5.12-.76-6.77.2-1.65.66-2.88,1.38-3.69.72-.81,1.59-1.29,2.61-1.45,1.02-.15,2.04-.23,3.05-.23.98,1.62,1.79,2.88,2.43,3.78.64.9,1.18,1.87,1.6,2.9.43,1.03.78,2.31,1.05,3.83.28,1.53.53,3.69.78,6.49.06.69.1,1.18.11,1.5.02.31.24.47.67.47.34,0,.65-.58.94-1.73.29-1.15.53-2.6.73-4.35.2-1.74.34-3.67.44-5.79.09-2.12.13-4.13.11-6.03-.02-1.9-.08-3.57-.21-5-.12-1.43-.32-2.37-.6-2.8-.49,0-.94.25-1.35.75-.41.5-.83,1-1.26,1.5-.43.5-.88.87-1.35,1.12-.47.25-1,.16-1.58-.28-.27-.19-.48-.51-.62-.98-.14-.47-.27-.95-.39-1.45-.12-.5-.25-.97-.39-1.4-.14-.44-.33-.75-.57-.93-.73-.5-1.7-.54-2.89-.14-1.19.41-2.37,1.11-3.53,2.1-1.16,1-2.22,2.23-3.16,3.69-.95,1.46-1.56,3.01-1.83,4.63-.06.31-.16.89-.3,1.73-.14.84-.29,1.74-.46,2.71-.17.97-.32,1.85-.46,2.66-.14.81-.21,1.28-.21,1.4-.03,1.12.04,2.43.21,3.92s.4,3.04.71,4.63.69,3.12,1.15,4.58c.46,1.46.97,2.71,1.54,3.74.56,1.03,1.18,1.74,1.83,2.15.66.41,1.35.33,2.08-.23.95.62,1.96,1.25,3.05,1.87,1.08.62,2.15,1.32,3.19,2.1,1.04.78,2,1.68,2.89,2.71s1.58,2.27,2.09,3.74c.5,1.46.77,3.19.8,5.19.03,1.89-.26,4.08-.86,6.57-.07.28-.2.57-.37.81-1.61,2.26-3.09,3.57-4.44,3.93-1.42.37-2.7-.06-3.85-1.31-1.15-1.25-2.16-3.19-3.05-5.84-.89-2.65-1.62-5.75-2.2-9.3-.09-.56-.2-1.31-.32-2.24s-.28-1.81-.46-2.62c-.18-.81-.42-1.45-.71-1.92s-.65-.51-1.08-.14c-.27.25-.51,1.04-.71,2.38-.2,1.34-.37,2.96-.5,4.86-.14,1.9-.25,3.97-.32,6.21-.08,2.24-.12,4.38-.14,6.4-.02,2.02,0,3.83.05,5.42.05,1.59.12,2.66.21,3.22l.23,1.59c.03.25.11.45.23.61.12.15.24.23.37.23.34,0,.71-.36,1.12-1.07.41-.72.89-1.42,1.42-2.1.53-.68,1.16-1.18,1.88-1.5.72-.31,1.57-.09,2.54.65.46,1.68,1.01,2.85,1.67,3.5.66.65,1.37.96,2.13.93.76-.03,1.54-.34,2.34-.93s1.56-1.31,2.29-2.15c.73-.84,1.41-1.74,2.04-2.71.43-.66.8-1.26,1.12-1.82.26-.44.42-.92.49-1.43.11-.73.3-1.64.59-2.74.38-1.46.76-3.07,1.12-4.81.37-1.74.66-3.55.87-5.42.21-1.87.2-3.64-.05-5.33-.24-1.56-.57-3.02-.96-4.39Z"/><path class="cls-1" d="M280.75,29.63c-.43-.09-.92-.14-1.45-.14s-1.01-.01-1.51-.05c-.29-.02-.55-.06-.78-.13-.3-.09-.62-.09-.92.02s-.68.2-1.17.3c-.83.16-1.71.25-2.64.28-.94.03-1.8.02-2.6-.05-.37-.03-.68-.07-.92-.13-.41-.1-.83.06-1.07.41-.5.73-.79,1.48-.88,2.24-.11,1-.02,1.9.27,2.71.29.81.73,1.46,1.3,1.96.46.4.92.64,1.39.72.25.04.44.24.56.46.17.34.36.66.57.97.22.33.43.69.61,1.06.11.22.16.47.17.71.03,1.69.1,3.86.2,6.5.11,2.84.22,5.92.31,9.25.1,3.33.17,6.81.23,10.42.06,3.61.04,7.02-.04,10.23-.08,3.21-.25,6.09-.48,8.64-.21,2.27-.52,4.05-.92,5.34-.07.23-.26.42-.5.47-.35.07-.68.33-1,.78-.27.39-.56.66-.87.82-.34.18-.6.48-.68.86-.1.51-.17,1.07-.21,1.69-.06.9.07,1.67.38,2.29.42.13.89.28,1.4.47.52.19,1.03.33,1.53.42s.99.05,1.47-.14c.47-.19.89-.59,1.26-1.21.53.31,1.02.53,1.47.65.45.13.89.2,1.32.23.43.03.88.03,1.34,0,.46-.03.97-.05,1.53-.05.36,0,.68-.23.96-.7.28-.47.47-1.01.59-1.64.11-.62.12-1.25.02-1.87-.1-.62-.33-1.12-.69-1.5l-1.25.33c-.64-.68-.8-1.44-1.14-3.09-.34-1.65-.57-3.57-.69-5.75-.13-2.18,0-11.94.11-14.34.11-2.4.23-4.63.36-6.68.12-2.06.2-3.71.23-4.95.03-1.06.01-2.46-.04-4.21-.06-1.74-.1-3.53-.13-5.37-.03-1.84-.01-3.55.04-5.14.06-1.59.21-2.79.46-3.6.14-.44.38-.87.71-1.31.34-.44.71-.89,1.11-1.35.4-.47.79-.95,1.15-1.45.36-.5.65-1.04.86-1.64.21-.59.3-1.21.27-1.87-.03-.65-.25-1.39-.67-2.2-.2-.37-.51-.61-.94-.7Z"/><path class="cls-1" d="M317.07,29.12c-.38-.37-.82-.48-1.32-.33-.5.16-1.03.39-1.59.7-.56.31-.85.09-1.61.09-.69,0-.63.27-1.16.23-.53-.03-1.12-.11-1.76-.23-.64-.12-1.28-.22-1.91-.28-.63-.06-1.16,0-1.59.19s-.73.58-.9,1.17c-.17.59-.08,1.51.25,2.76.31,1.18.75,2.09,1.34,2.71.59.62,1.16,1.23,1.72,1.82.56.59,1.04,1.28,1.45,2.06.41.78.59,1.88.57,3.32-.17,5.48-.28,11.01-.34,16.59-.06,5.58.04,11.14.29,16.68,0,.31-.04.34-.1.09-.07-.25-.15-.59-.23-1.03-.08-.44-.17-.89-.25-1.35s-.14-.76-.17-.89c-.08-.44-.2-1.07-.36-1.92-.15-.84-.32-1.68-.5-2.52-.18-.84-.36-1.64-.54-2.38-.18-.75-.36-1.25-.52-1.5-.08-.12-.33-.84-.75-2.15-.42-1.31-.92-2.88-1.51-4.72-.59-1.84-1.21-3.82-1.87-5.93-.66-2.12-1.27-4.11-1.82-5.98-.56-1.87-1.03-3.46-1.4-4.77-.38-1.31-.58-2.09-.61-2.34-.06-.31-.08-.93-.08-1.87s-.04-1.87-.1-2.8c-.07-.93-.17-1.74-.31-2.43-.14-.69-.35-.93-.63-.75l-1.01.84c-.59-1-1.19-1.7-1.8-2.1-.62-.4-1.24-.62-1.87-.65-.63-.03-1.25.05-1.87.23-.62.19-1.22.34-1.8.47-.48.13-.96,0-1.45-.37-.49-.37-.94-.58-1.36-.61-.42-.03-.78.25-1.07.84-.29.59-.45,1.85-.48,3.78-.03,1.56.07,2.7.29,3.41.22.72.52,1.21.88,1.5.36.28.78.44,1.24.47.46.03.92.11,1.36.23.45.13.86.39,1.24.79.38.41.65,1.14.82,2.2.31,1.81.61,3.68.92,5.61.31,1.93.5,3.89.59,5.89.06,1.43-.03,2.85-.25,4.25-.22,1.4-.31,2.82-.25,4.25.03.81.1,1.84.21,3.08.11,1.25.2,2.54.27,3.88.07,1.34.11,2.62.13,3.83.01,1.21-.05,2.13-.19,2.76-.2,1-.33,1.76-.42,2.29-.08.53-.14,1.01-.17,1.45-.03.44-.04.93-.02,1.5.01.56.02,1.37.02,2.43.03,1.43-.1,2.54-.4,3.32-.29.78-.66,1.37-1.11,1.78-.45.41-.94.75-1.47,1.03-.53.28-1.03.64-1.49,1.07-.46.44-.85,1.06-1.15,1.87-.31.81-.46,1.96-.46,3.46,0,.93.35,1.68,1.05,2.24.7.56,1.58.97,2.64,1.21,1.06.25,2.21.33,3.44.23,1.23-.09,2.39-.33,3.48-.7,1.09-.37,2.01-.92,2.75-1.64.74-.72,1.14-1.57,1.19-2.57.06-1,0-1.68-.17-2.06-.17-.37-.41-.65-.71-.84-.31-.19-.65-.36-1.03-.51-.38-.15-.75-.48-1.13-.98-.38-.5-.72-1.25-1.03-2.24-.31-1-.53-2.46-.67-4.39-.06-.69-.13-1.84-.21-3.46-.08-1.62-.17-3.46-.25-5.51-.08-2.06-.16-4.21-.23-6.45-.07-2.24-.1-4.3-.1-6.17s.04-3.55.13-4.86c.08-1.31.22-2.09.42-2.34.31-.37.62-.59.94-.65.32-.06.62.19.9.75.25.56.68,1.71,1.28,3.46.6,1.74,1.28,3.82,2.03,6.21.75,2.4,1.54,4.97,2.37,7.71.82,2.74,1.59,5.36,2.31,7.85.71,2.49,1.33,4.72,1.85,6.68.52,1.96.83,3.38.94,4.25.06.5.25,1.37.59,2.62.33,1.25.72,2.43,1.15,3.55.43,1.12.86,1.93,1.28,2.43.42.5.75.22,1.01-.84.14-.68.24-2.12.29-4.3.06-2.18.08-4.77.06-7.76s-.06-6.21-.12-9.67c-.07-3.46-.14-6.76-.21-9.91-.07-3.15-.13-5.96-.19-8.46-.06-2.49-.1-4.33-.13-5.51,0-.93.02-2.06.06-3.36.04-1.31.13-2.63.25-3.97.13-1.34.29-2.62.5-3.83.21-1.21.45-2.16.73-2.85.22-.56.56-1.07,1.01-1.54s.89-.97,1.32-1.5c.43-.53.8-1.14,1.11-1.82.31-.69.42-1.5.34-2.43-.14-1.68-.4-2.71-.78-3.08Z"/><path class="cls-1" d="M361.2,37.29c-.9-1.84-1.95-3.39-3.17-4.67-1.22-1.28-2.52-2.21-3.9-2.8-1.38-.59-2.72-.79-4-.61-.53.13-1,.47-1.41,1.03-.14.2-.29.38-.44.55-.44.48-1.17.53-1.69.15s-.93-.67-1.26-.88c-.49-.31-.94-.47-1.36-.47-.39,0-.84.11-1.34.33-.5.22-1.19.48-2.05.79-.42.19-.89.09-1.4-.28-.52-.37-1.04-.67-1.57-.89-.53-.22-1.06-.23-1.57-.05-.52.19-.99.87-1.41,2.06-.56,1.62-.83,2.82-.82,3.6.01.78.2,1.37.54,1.78.35.41.82.72,1.41.93.59.22,1.18.55,1.78.98.6.44,1.15,1.07,1.66,1.92.5.84.84,2.07,1.01,3.69.14,1.25.24,2.6.29,4.06.06,1.46.08,2.98.08,4.53s0,3.01-.02,4.53c-.01,1.53,0,2.94.06,4.25,0,.5,0,1.48-.02,2.94-.01,1.46-.04,3.16-.06,5.09-.03,1.93-.07,3.97-.12,6.12-.06,2.15-.12,4.14-.19,5.98-.07,1.84-.13,3.41-.19,4.72-.06,1.31-.11,2.06-.17,2.24-.2.81-.49,1.5-.88,2.06-.39.56-.8,1.09-1.24,1.59-.43.5-.87.97-1.3,1.4-.43.44-.79.87-1.07,1.31-.28.44-.45.93-.5,1.5-.06.56.07,1.21.38,1.96.25.69.56,1.15.92,1.4.36.25.74.47,1.13.65.28.12.55.12.82,0,.26-.13.52-.28.78-.47.25-.19.51-.39.78-.61.27-.22.54-.36.82-.42.28-.06.75-.03,1.41.09.66.13,1.4.25,2.22.37s1.67.2,2.54.23c.87.03,1.66-.06,2.37-.28.71-.22,1.29-.61,1.74-1.17.32-.4.52-.92.61-1.57.07-.5-.07-1.01-.36-1.43-.18-.25-.36-.52-.57-.83-.38-.56-.76-1.14-1.15-1.73-.39-.59-.75-1.2-1.09-1.82-.34-.62-.59-1.21-.75-1.78-.17-.5-.27-1.04-.29-1.64-.03-.59-.03-1.17,0-1.73.03-.56.04-1.09.04-1.59,0-.56-.06-1.06-.17-1.5-.78-2.93-1.17-5.9-1.15-8.92.01-3.02.38-6,1.11-8.92,1.4.31,2.75.11,4.07-.61,1.31-.72,2.61-1.6,3.9-2.66.31-.25.71-.42,1.2-.51.49-.09.99-.2,1.51-.33.52-.12,1-.29,1.45-.51.45-.22.8-.58,1.05-1.07,1.4-2.93,2.31-5.73,2.73-8.41.42-2.68.47-5.17.15-7.48-.32-2.3-.93-4.38-1.82-6.21ZM355.79,55.05c-.42,1.9-1.1,3.47-2.05,4.72-.28.37-.71.72-1.3,1.03-.59.31-1.21.58-1.87.79-.66.22-1.29.37-1.91.47-.62.09-1.09.08-1.43-.05-.08-.68-.2-1.35-.33-2.01-.14-.65-.24-1.32-.29-2.01-.22-2.8-.36-5.61-.4-8.41-.04-2.8.12-5.61.48-8.41.11-.75.22-1.51.33-2.29.11-.78.26-1.48.44-2.1.18-.62.41-1.12.69-1.5.28-.37.64-.56,1.09-.56.31,0,.61-.11.9-.33.29-.22.59-.42.9-.61.64-.37,1.29-.19,1.95.56.66.75,1.24,1.88,1.76,3.41.52,1.53.93,3.29,1.24,5.28.31,1.99.45,4.02.44,6.07-.01,2.06-.23,4.03-.65,5.93Z"/><path class="cls-1" d="M395.76,90.5c-.19.23-.54.27-.75.06-.61-.57-1.11-1.62-1.51-3.13-.49-1.87-.97-4.03-1.45-6.49-.48-2.46-1.01-5.01-1.61-7.66-.6-2.65-1.42-5.03-2.45-7.15l-.38-1.03c0-.25.29-.92.86-2.01.57-1.09,1.22-2.27,1.95-3.55.73-1.28,1.41-2.51,2.05-3.69.64-1.18,1.03-1.96,1.17-2.34.31-.81.5-2.1.57-3.88.07-1.78.04-3.6-.1-5.47-.14-1.87-.37-3.58-.69-5.14-.32-1.56-.72-2.52-1.19-2.9-.34-.31-.67-.53-1.01-.65-.33-.12-.7-.34-1.09-.65-.5-.37-.96-.73-1.38-1.07-.42-.34-.83-.69-1.22-1.03-.39-.34-.79-.65-1.2-.93s-.87-.54-1.4-.79c-.48-.19-.92-.44-1.32-.75-.41-.31-.8-.56-1.19-.75-.39-.19-.78-.26-1.17-.23-.39.03-.57.17-.99.61-.22.22-.79-.31-1.17-.19-.38.13-.37.44-.86.44-.75,0-.72-.05-1.39-.2-.67-.15-1.43-.26-2.29-.33-.85-.06-1.75-.08-2.68-.05-.94.03-1.79.14-2.56.33-.77.19-1.4.48-1.91.89-.5.41-.74.95-.71,1.64.03,1.18.14,2.02.33,2.52.2.5.43.84.71,1.03s.59.3.94.33c.35.03.71.16,1.07.37.36.22.71.64,1.05,1.26.34.62.63,1.62.88,2.99.28,1.43.5,3.29.65,5.56.15,2.27.26,4.77.33,7.48.07,2.71.11,5.55.13,8.5.01,2.96.01,5.84,0,8.64-.01,2.8-.04,5.44-.08,7.9-.04,2.46-.06,4.53-.06,6.21,0,1.18-.13,2.34-.4,3.46-.27,1.12-.6,2.1-1.01,2.94-.41.84-.86,1.5-1.36,1.96-.3.28-.61.47-.92.56-.38.11-.69.37-.76.76l-.2,1.07c.03.37.15.84.36,1.4.21.56.45,1.09.73,1.59.28.5.55.89.82,1.17s.48.29.65.05c.56-.87,1.31-1.32,2.24-1.35.94-.03,1.91.05,2.93.23s2.02.36,3,.51c.98.16,1.78-.01,2.39-.51l.67-2.06c0-.69-.14-1.23-.42-1.64-.28-.4-.6-.83-.96-1.26-.36-.44-.73-.98-1.09-1.64s-.62-1.54-.75-2.66c-.14-1.18-.21-2.8-.21-4.86s.03-4.33.1-6.63c.07-2.3.17-4.52.29-6.63.12-2.12.23-3.83.31-5.14.03,0,.17.03.42.09.25.06.57.17.96.33.39.16.74.33,1.05.51.56.37,1.13.56,1.72.56s1.11.17,1.57.51c.46.34.85,1,1.15,1.96.31.97.48,2.57.5,4.81,0,1.81.03,3.71.08,5.7.06,1.99.16,3.99.31,5.98.15,1.99.37,3.92.65,5.79.25,1.68.59,3.18,1.02,4.51.09.29.29.54.54.72.6.44,1.07.83,1.42,1.17.42.41.75.72,1.01.93.25.22.47.34.65.37.18.03.43-.05.73-.23.31-.19.71-.47,1.22-.84.46-.35,1.1-.77,1.9-1.28.13-.08.22-.2.27-.34.17-.52.4-1.13.71-1.84.35-.81.64-1.65.88-2.52.24-.87.35-1.73.34-2.57-.01-.63-.17-1.22-.47-1.76-.15-.27-.52-.31-.71-.07l-1.21,1.5ZM385.98,59.86c-.24.4-.66-.05-.96.05-.31.09-.62.23-.92.42-.31.19-.63.37-.96.56-.33.19-.7.31-1.09.37-.53.13-1.01.17-1.43.14-.42-.03-.85-.01-1.3.05.03-.19,0-.56-.08-1.12-.08-.56-.18-1.17-.29-1.82-.11-.65-.22-1.29-.31-1.92-.1-.62-.15-1.15-.15-1.59,0-.5.02-1,.06-1.5.04-.5.06-1,.06-1.5,0-1.25-.09-2.3-.27-3.18-.18-.87-.33-1.78-.44-2.71-.11-.93-.11-1.99.02-3.18.13-1.18.51-2.68,1.15-4.49.28-.81.59-1.57.92-2.29.34-.72.74-1.07,1.22-1.07.25,0,.48.09.69.28s.43.44.65.75c.25.31.52.56.82.75.29.19.59.37.88.56.29.19.59.42.9.7.31.28.59.64.84,1.07.89,1.56,1.52,3.19,1.89,4.91.36,1.71.52,3.47.46,5.28-.06,1.81-.29,3.6-.71,5.37-.42,1.78-.96,3.47-1.64,5.09Z"/><path class="cls-1" d="M428.7,50.24c-.9-3.8-2.02-7.07-3.38-9.81-1.36-2.74-2.77-5.42-4.26-8.04-.31-.5-.73-.97-1.28-1.4-.54-.44-1.13-.81-1.74-1.12-.62-.31-1.22-.56-1.8-.75-.59-.19-1.08-.28-1.47-.28-1.03,0-2.1.67-3.21,2.01-1.11,1.34-2.18,3.12-3.23,5.33-1.05,2.21-2.02,4.73-2.91,7.57-.89,2.84-1.64,5.72-2.24,8.64-.6,2.93-1.01,5.79-1.24,8.6-.22,2.8-.18,5.3.13,7.48.2,1.43.31,2.93.36,4.49.04,1.56.1,3.12.17,4.67.07,1.56.2,3.08.38,4.58.18,1.5.51,2.84.99,4.02.25.69.54,1.28.86,1.78.32.5.61,1.12.86,1.87.53,1.62.94,2.96,1.24,4.02.29,1.06.62,1.92.99,2.57.36.65.82,1.11,1.36,1.35.43.2,1.01.32,1.74.36.42.02.79.26,1.04.59,1.31,1.77,2.6,2.81,3.87,3.12,1.4.34,2.73-.02,3.98-1.07s2.44-2.66,3.54-4.81c1.1-2.15,2.08-4.67,2.94-7.57.85-2.9,1.57-6.03,2.14-9.39.57-3.36.98-6.74,1.22-10.14.24-3.4.28-6.7.13-9.91-.15-3.21-.54-6.12-1.15-8.74ZM423.59,73.41c-.17,1.43-.29,2.93-.36,4.49-.07,1.56-.15,3.1-.23,4.63-.08,1.53-.18,3.05-.29,4.58-.11,1.53-.29,2.98-.54,4.35-.25,1.56-.56,2.68-.92,3.36-.36.69-.77,1.12-1.22,1.31-.45.19-.94.25-1.47.19-.53-.06-1.09-.06-1.68,0-.64.13-1.25.34-1.82.65-.57.31-1.17.13-1.78-.56-.73-.81-1.34-2.15-1.84-4.02-.5-1.87-.92-4.03-1.26-6.49-.33-2.46-.59-5.09-.75-7.9-.17-2.8-.28-5.56-.33-8.27-.06-2.71-.06-5.25,0-7.62.06-2.37.14-4.33.25-5.89.08-1.25.22-2.71.4-4.39.18-1.68.39-3.39.63-5.14.24-1.74.5-3.41.78-5,.28-1.59.57-2.88.88-3.88.25-.81.62-1.42,1.09-1.82.47-.4.99-.72,1.53-.93.54-.22,1.1-.37,1.66-.47.56-.09,1.03-.23,1.43-.42.2-.06.42.03.67.28.25.25.51.56.78.93.27.37.52.78.75,1.21.24.44.44.78.61,1.03.59,1,1.03,2.57,1.34,4.72.31,2.15.54,4.47.71,6.96.17,2.49.29,4.95.36,7.38.07,2.43.15,4.42.23,5.98.08,1.81.22,3.6.42,5.37.2,1.78.2,3.57,0,5.37Z"/><path class="cls-1" d="M464.22,67.06c-.17-.69-.52-1.17-1.07-1.45-.55-.28-1.14-.42-1.78-.42s-1.22.08-1.82.23c-.15.04-.29.08-.42.13-.63.22-1.34.1-1.9-.27-.23-.16-.42-.25-.55-.28-.28-.06-.49.03-.63.28-.14.25-.31.56-.5.93-.2.37-.14.63-.86.63-.32,0-.79-.24-1.15-.4-.36-.15-.71-.19-1.05-.09-.33.09-.62.34-.84.75-.15.27-.24.63-.26,1.08s.06.89.23,1.3c.16.38.34.8.55,1.27.32.72.64,1.5.94,2.34.31.84.58,1.67.82,2.48.24.81.38,1.53.44,2.15.06.75.08,1.74.08,2.99s-.04,2.48-.1,3.88c-.07,1.4-.18,2.79-.33,4.16-.15,1.37-.36,2.56-.63,3.55-.27,1-.59,1.71-.99,2.15-.39.44-.93-.2-1.34.16-.23.29-.53.3-1.09.45-.56.16-1.17.2-1.82.14-.66-.06-1.28-.19-1.87-.37s-.98-.47-1.17-.84c-.75-1.31-1.39-3.24-1.91-5.79-.52-2.55-.91-5.43-1.17-8.64-.27-3.21-.42-6.62-.46-10.23-.04-3.61.03-7.15.21-10.61s.48-6.73.88-9.81c.41-3.08.91-5.67,1.51-7.76.6-2.09,1.29-3.57,2.08-4.44.54-.6,1.13-.77,1.77-.51.53.22,1.1.13,1.57-.19.39-.27.8-.23,1.21.1.66.53,1.3,1.46,1.93,2.8.63,1.34,1.23,2.96,1.8,4.86.57,1.9,1.09,3.71,1.55,5.42.46,1.71.86,3.21,1.2,4.49.34,1.28.37,2.1.71,2.1.44,0,.49-1.14.71-2.48.22-1.34.41-2.94.57-4.81.15-1.87.26-3.83.33-5.89.07-2.06.08-3.99.02-5.79-.06-1.81-.19-3.32-.4-4.53-.08-.47-.18-.86-.29-1.17-.17-.49-.8-.63-1.15-.25-1.18,1.27-2.08,2.06-2.69,2.36-.7.34-1.23.33-1.59-.05-.36-.37-.68-.95-.94-1.73-.27-.78-.68-1.43-1.24-1.96-.56-.53-1.38-.78-2.45-.75-1.08.03-2.62.61-4.63,1.73-.48.25-.87.83-1.17,1.73-.31.9-.64,1.6-1.01,2.1-1.15,1.56-2.08,3.08-2.81,4.58-.73,1.5-1.31,3.1-1.76,4.81-.45,1.71-.8,3.61-1.05,5.7-.25,2.09-.5,4.47-.75,7.15-.08.75-.2,1.46-.33,2.15-.14.69-.29,1.39-.46,2.1-.17.72-.31,1.45-.44,2.2-.13.75-.2,1.59-.23,2.52-.06,1.68-.03,3.52.08,5.51.11,1.99.29,4,.54,6.03.25,2.02.58,3.94.99,5.75.41,1.81.89,3.3,1.45,4.49,1.01,2.24,1.77,3.99,2.29,5.23.52,1.25.93,2.23,1.24,2.94.31.72.57,1.26.8,1.64.22.37.55.78.99,1.21.43.44,1.04,1.01,1.82,1.73.56.51,1.27,1.2,2.13,2.07.58.59,1.44.71,2.23.49.14-.04.28-.07.43-.08.6-.06,1.18-.19,1.74-.37.56-.19,1.07-.53,1.53-1.03.46-.5.76-1.4.9-2.71.22,0,.42-.17.59-.51.17-.34.33-.72.48-1.12.1-.27.21-.5.32-.71.08,1,.24,1.82.48,2.44.29.75.63,1.28,1.03,1.59.39.31.8.4,1.24.28.43-.13.8-.47,1.11-1.03s.52-1.29.65-2.2c.12-.9.08-1.98-.15-3.22.17-.75.28-1.67.34-2.76.06-1.09.1-2.23.13-3.41.03-1.18.06-2.37.08-3.55.02-.89.07-1.7.16-2.45.05-.48.06-.97.01-1.46-.23-2.17-.22-3.75.02-4.73.26-1.09.65-1.84,1.15-2.24.5-.4,1.05-.67,1.64-.79.59-.12,1.06-.5,1.43-1.12.31-.5.45-1.17.44-2.01-.01-.84-.11-1.6-.27-2.29Z"/><path class="cls-1" d="M495.13,90.24c-.32.4-.93.41-1.25,0-.48-.61-.89-1.55-1.22-2.82-.49-1.87-.97-4.03-1.45-6.49-.48-2.46-1.01-5.01-1.61-7.66-.6-2.65-1.42-5.03-2.45-7.15l-.38-1.03c0-.25.29-.92.86-2.01.57-1.09,1.22-2.27,1.95-3.55.73-1.28,1.41-2.51,2.05-3.69.64-1.18,1.03-1.96,1.17-2.34.31-.81.5-2.1.57-3.88.07-1.78.04-3.6-.1-5.47-.14-1.87-.37-3.58-.69-5.14-.32-1.56-.72-2.52-1.19-2.9-.34-.31-.67-.53-1.01-.65-.33-.12-.7-.34-1.09-.65-.5-.37-.96-.73-1.38-1.07-.42-.34-.83-.69-1.22-1.03-.39-.34-.79-.65-1.2-.93s-.87-.54-1.4-.79c-.48-.19-.92-.44-1.32-.75-.41-.31-.8-.56-1.19-.75-.39-.19-.39-.26-.78-.23-.39.03-.31.47-1.43.47-.38,0-.74-.17-1.12-.05-.38.13-.37.46-1.01.46-.58,0-.56-.07-1.23-.23-.67-.15-1.43-.26-2.29-.33-.85-.06-1.75-.08-2.68-.05-.94.03-1.79.14-2.56.33-.77.19-1.4.48-1.91.89-.5.41-.74.95-.71,1.64.03,1.18.14,2.02.33,2.52.2.5.43.84.71,1.03s.59.3.94.33c.35.03.71.16,1.07.37.36.22.71.64,1.05,1.26.34.62.63,1.62.88,2.99.28,1.43.5,3.29.65,5.56.15,2.27.26,4.77.33,7.48.07,2.71.11,5.55.13,8.5.01,2.96.01,5.84,0,8.64-.01,2.8-.04,5.44-.08,7.9-.04,2.46-.06,4.53-.06,6.21,0,1.18-.13,2.34-.4,3.46-.27,1.12-.6,2.1-1.01,2.94-.41.84-.86,1.5-1.36,1.96-.3.28-.61.47-.92.56-.38.11-.69.37-.76.76l-.17.91c-.02.1-.03.2-.01.3.04.35.16.76.34,1.25.21.56.45,1.09.73,1.59.28.5.55.89.82,1.17s.48.29.65.05c.56-.87,1.31-1.32,2.24-1.35.94-.03,1.91.05,2.93.23s2.02.36,3,.51c.53.08,1,.07,1.42-.03.57-.14,1.01-.6,1.19-1.16l.45-1.37c0-.69-.14-1.23-.42-1.64-.28-.4-.6-.83-.96-1.26-.36-.44-.73-.98-1.09-1.64s-.62-1.54-.75-2.66c-.14-1.18-.21-2.8-.21-4.86s.03-4.33.1-6.63c.07-2.3.17-4.52.29-6.63.12-2.12.23-3.83.31-5.14.03,0,.17.03.42.09.25.06.57.17.96.33.39.16.74.33,1.05.51.56.37,1.13.56,1.72.56s1.11.17,1.57.51c.46.34.85,1,1.15,1.96.31.97.48,2.57.5,4.81,0,1.81.03,3.71.08,5.7.06,1.99.16,3.99.31,5.98.15,1.99.37,3.92.65,5.79.23,1.56.54,2.96.93,4.22.14.46.44.87.82,1.16.51.38.91.72,1.22,1.02.42.41.75.72,1.01.93.25.22.47.34.65.37.18.03.43-.05.73-.23.31-.19.71-.47,1.22-.84.4-.3.92-.65,1.57-1.07.33-.21.58-.52.71-.89.15-.44.35-.94.59-1.49.35-.81.64-1.65.88-2.52.24-.87.35-1.73.34-2.57,0-.46-.09-.9-.26-1.31-.2-.5-.85-.62-1.19-.2l-.74.91ZM485.14,59.86c-.41.68-.85.08-1.16.17-.31.09-.42.11-.73.3-.31.19-.63.37-.96.56-.33.19-.7.31-1.09.37-.53.13-1.01.17-1.43.14-.42-.03-.95-.11-1.4-.05.03-.19.1-.46.01-1.02-.08-.56-.18-1.17-.29-1.82-.11-.65-.22-1.29-.31-1.92-.1-.62-.15-1.15-.15-1.59,0-.5.02-1,.06-1.5.04-.5.06-1,.06-1.5,0-1.25-.09-2.3-.27-3.18-.18-.87-.33-1.78-.44-2.71-.11-.93-.11-1.99.02-3.18.13-1.18.51-2.68,1.15-4.49.28-.81.59-1.57.92-2.29.34-.72.74-1.07,1.22-1.07.25,0,.48.09.69.28s.43.44.65.75c.25.31.52.56.82.75.29.19.59.37.88.56.29.19.59.42.9.7.31.28.59.64.84,1.07.89,1.56,1.52,3.19,1.89,4.91.36,1.71.52,3.47.46,5.28-.06,1.81-.29,3.6-.71,5.37-.42,1.78-.96,3.47-1.64,5.09Z"/><path class="cls-1" d="M587.22,73.88c-.24-1.56-.57-3.02-.96-4.39-.4-1.37-.66-2.86-.78-4.49l-3.35-6.35c-.21-.25-.47-.37-.78-.37h-1.01c-.37,0-.77-.08-1.21-.23-.44-.15-.92-.51-1.44-1.07-.21-.25-.47-.44-.76-.56-.29-.12-.58-.25-.87-.37-.29-.12-.56-.25-.8-.37-.25-.12-.44-.31-.6-.56-.25-.37-.43-.84-.55-1.4s-.34-1-.64-1.31c-.34-.31-.65-.45-.94-.42-.29.03-.58.03-.87,0-.29-.03-.57-.2-.85-.51-.27-.31-.53-1.03-.78-2.15-.7-2.86-.96-5.12-.76-6.77.2-1.65.66-2.88,1.38-3.69.72-.81,1.59-1.29,2.61-1.45,1.02-.15,2.04-.23,3.05-.23.98,1.62,1.79,2.88,2.43,3.78.64.9,1.18,1.87,1.6,2.9.43,1.03.78,2.31,1.05,3.83.28,1.53.53,3.69.78,6.49.06.69.1,1.18.11,1.5.02.31.24.47.67.47.34,0,.65-.58.94-1.73.29-1.15.53-2.6.73-4.35.2-1.74.34-3.67.44-5.79.09-2.12.13-4.13.11-6.03-.02-1.9-.08-3.57-.21-5-.12-1.43-.32-2.37-.6-2.8-.49,0-.94.25-1.35.75-.41.5-.83,1-1.26,1.5-.43.5-.88.87-1.35,1.12-.47.25-1,.16-1.58-.28-.27-.19-.48-.51-.62-.98-.14-.47-.27-.95-.39-1.45-.12-.5-.25-.97-.39-1.4-.14-.44-.33-.75-.57-.93-.73-.5-1.7-.54-2.89-.14-1.19.41-2.37,1.11-3.53,2.1-1.16,1-2.22,2.23-3.16,3.69-.95,1.46-1.56,3.01-1.83,4.63-.06.31-.16.89-.3,1.73-.14.84-.29,1.74-.46,2.71-.17.97-.32,1.85-.46,2.66-.14.81-.21,1.28-.21,1.4-.03,1.12.04,2.43.21,3.92s.4,3.04.71,4.63.69,3.12,1.15,4.58c.46,1.46.97,2.71,1.54,3.74.56,1.03,1.18,1.74,1.83,2.15.66.41,1.35.33,2.08-.23.95.62,1.96,1.25,3.05,1.87,1.08.62,2.15,1.32,3.19,2.1,1.04.78,2,1.68,2.89,2.71s1.58,2.27,2.09,3.74c.5,1.46.77,3.19.8,5.19.03,1.99-.29,4.33-.96,7.01-1.71,2.49-3.28,3.92-4.7,4.3-1.42.37-2.7-.06-3.85-1.31-1.15-1.25-2.16-3.19-3.05-5.84-.89-2.65-1.62-5.75-2.2-9.3-.09-.56-.2-1.31-.32-2.24s-.28-1.81-.46-2.62c-.18-.81-.42-1.45-.71-1.92s-.65-.51-1.08-.14c-.27.25-.51,1.04-.71,2.38-.2,1.34-.37,2.96-.5,4.86-.14,1.9-.25,3.97-.32,6.21-.08,2.24-.12,4.38-.14,6.4-.02,2.02,0,3.83.05,5.42.05,1.59.12,2.66.21,3.22l.23,1.59c.03.25.11.45.23.61.12.15.24.23.37.23.34,0,.71-.36,1.12-1.07.41-.72.89-1.42,1.42-2.1.53-.68,1.16-1.18,1.88-1.5.72-.31,1.57-.09,2.54.65.46,1.68,1.01,2.85,1.67,3.5.66.65,1.37.96,2.13.93.76-.03,1.54-.34,2.34-.93s1.56-1.31,2.29-2.15c.73-.84,1.41-1.74,2.04-2.71.63-.97,1.14-1.82,1.54-2.57.06-.81.28-1.95.67-3.41.38-1.46.76-3.07,1.12-4.81.37-1.74.66-3.55.87-5.42.21-1.87.2-3.64-.05-5.33Z"/><path class="cls-1" d="M152.38,75.51c-.38-.9-.97-1.14-1.78-.7-.39,1.62-.75,3.13-1.09,4.53-.33,1.4-.68,2.74-1.03,4.02-.35,1.28-.73,2.56-1.15,3.83-.42,1.28-.89,2.57-1.42,3.88-.28.19-.59.39-.94.61-.35.22-.7.48-1.05.79-.35.31-.69.65-1.01,1.03-.16.19-.31.37-.45.56-.22.3-.57.45-.94.44-.15,0-.32,0-.5.03-.43.06-.87.13-1.3.19-.43.06-.85.05-1.24-.05-.39-.09-.69-.36-.88-.79-.39-.81-.75-2.21-1.07-4.21-.32-1.99-.59-4.17-.8-6.54-.21-2.37-.34-4.73-.38-7.1-.04-2.37.03-4.41.21-6.12.18-1.71.5-2.88.94-3.5.45-.62,1.05-.37,1.8.75h1.13c.11.31.34.84.69,1.59s.73,1.53,1.13,2.34c.41.81.78,1.54,1.11,2.2.33.65.57,1.07.71,1.26l1.09-.37c.03-1.12.02-2.21-.02-3.27-.04-1.06-.1-2.09-.17-3.08-.07-1-.13-1.99-.19-2.99-.06-1-.08-2.02-.08-3.08.03-.93.11-2.13.25-3.6.14-1.46.25-2.94.33-4.44s.1-2.9.04-4.21c-.06-1.31-.29-2.27-.71-2.9-.39-.62-.71-.48-.94.42-.24.9-.43,2.06-.59,3.46-.15,1.4-.29,2.79-.42,4.16-.13,1.37-.29,2.21-.48,2.52-.25.37-.63.9-1.13,1.59-.5.69-1.02,1.25-1.55,1.68-.53.44-1.02.61-1.47.51-.45-.09-.71-.7-.8-1.82-.39-4.49-.62-8.28-.67-11.4-.06-3.11.22-5.53.82-7.24.6-1.71,1.61-2.74,3.02-3.08.68-.16,1.48-.17,2.41-.03,2.03.31,3.71,1.73,4.45,3.65.27.69.54,1.37.82,2.04.63,1.5,1.22,3.05,1.78,4.67.17.5.3,1.09.4,1.78.1.69.2,1.37.29,2.06.1.69.21,1.37.34,2.06.13.69.3,1.31.52,1.87.06.13.14.27.25.42.11.16.23.28.36.37.13.09.24.09.34,0,.1-.09.17-.29.23-.61.03-.31.05-1.07.06-2.29.01-1.21,0-2.65-.02-4.3-.03-1.65-.06-3.41-.11-5.28-.04-1.87-.09-3.61-.15-5.23-.06-1.62-.13-2.97-.21-4.06-.08-1.09-.15-1.73-.21-1.92-.53-1.12-.99-1.81-1.36-2.06-.38-.25-.74-.28-1.09-.09s-.71.44-1.07.75c-.36.31-.8.44-1.3.37-.28,0-.56-.11-.84-.33-.28-.22-.56-.45-.84-.7-.28-.25-.56-.44-.84-.56-.28-.12-.57-.09-.88.09-.73.44-1.43.83-2.12,1.17-.69.34-1.36.53-2.01.56-.66.03-1.31-.12-1.97-.47-.38-.2-.76-.5-1.14-.9-.54-.57-1.31-.84-2.1-.83-.04,0-.09,0-.13,0h-2.01c-.73,0-1.47.03-2.24.09-.77.06-1.47.23-2.1.51-.63.28-1.15.72-1.55,1.31-.41.59-.61,1.42-.61,2.48,0,1.81.13,2.91.4,3.32.27.41.58.61.94.61.39,0,.81-.01,1.26-.05.45-.03.84.36,1.17,1.17.34.87.62,2.71.86,5.51s.43,6.07.57,9.81c.14,3.74.22,7.69.23,11.87.01,4.17-.02,8.08-.1,11.73-.08,3.64-.22,6.76-.4,9.34-.18,2.59-.41,4.16-.69,4.72-.28.56-.58.92-.9,1.07-.32.16-.66.31-1.01.47-.35.16-.7.41-1.05.75-.35.34-.69.95-1.03,1.82-.06,1.31.16,2.21.65,2.71.49.5,1.06.72,1.72.65.66-.06,1.32-.29,1.99-.7.36-.21.66-.45.91-.71.38-.39.93-.52,1.43-.29.36.16.77.33,1.23.49.87.31,1.77.55,2.71.7.94.16,1.82.14,2.64-.05.82-.19,2.87-.56,2.87-.56.36-.12.84-.22,1.45-.28.6-.06,1.22-.09,1.87-.09s1.32.02,1.95.05c.63.03,1.14.08,1.53.14.25.06.46.28.63.65.17.37.34.75.52,1.12.18.37.41.67.67.89.27.22.62.2,1.07-.05.11-.62.3-1.76.57-3.41.26-1.65.52-3.52.78-5.61.25-2.09.47-4.24.65-6.45.18-2.21.25-4.17.19-5.89-.06-1.71-.27-3.02-.65-3.92Z"/><path class="cls-1" d="M527.3,75.51c-.38-.9-.97-1.14-1.78-.7-.39,1.62-.75,3.13-1.09,4.53-.33,1.4-.68,2.74-1.03,4.02-.35,1.28-.73,2.56-1.15,3.83-.42,1.28-.89,2.57-1.42,3.88-.28.19-.59.39-.94.61-.35.22-.7.48-1.05.79-.35.31-.69.65-1.01,1.03-.16.19-.31.37-.45.56-.22.3-.57.45-.94.44-.15,0-.32,0-.5.03-.43.06-.87.13-1.3.19-.43.06-.85.05-1.24-.05-.39-.09-.69-.36-.88-.79-.39-.81-.75-2.21-1.07-4.21-.32-1.99-.59-4.17-.8-6.54-.21-2.37-.34-4.73-.38-7.1-.04-2.37.03-4.41.21-6.12.18-1.71.5-2.88.94-3.5.45-.62,1.05-.37,1.8.75h1.13c.11.31.34.84.69,1.59s.73,1.53,1.13,2.34c.41.81.78,1.54,1.11,2.2.33.65.57,1.07.71,1.26l1.09-.37c.03-1.12.02-2.21-.02-3.27-.04-1.06-.1-2.09-.17-3.08-.07-1-.13-1.99-.19-2.99-.06-1-.08-2.02-.08-3.08.03-.93.11-2.13.25-3.6.14-1.46.25-2.94.33-4.44s.1-2.9.04-4.21c-.06-1.31-.29-2.27-.71-2.9-.39-.62-.71-.48-.94.42-.24.9-.43,2.06-.59,3.46-.15,1.4-.29,2.79-.42,4.16-.13,1.37-.29,2.21-.48,2.52-.25.37-.63.9-1.13,1.59-.5.69-1.02,1.25-1.55,1.68-.53.44-1.02.61-1.47.51-.45-.09-.71-.7-.8-1.82-.39-4.49-.62-8.28-.67-11.4-.06-3.11.22-5.53.82-7.24.6-1.71,1.61-2.74,3.02-3.08.68-.16,1.48-.17,2.41-.03,2.03.31,3.71,1.73,4.45,3.65.27.69.54,1.37.82,2.04.63,1.5,1.22,3.05,1.78,4.67.17.5.3,1.09.4,1.78.1.69.2,1.37.29,2.06.1.69.21,1.37.34,2.06.13.69.3,1.31.52,1.87.06.13.14.27.25.42.11.16.23.28.36.37.13.09.24.09.34,0,.1-.09.17-.29.23-.61.03-.31.05-1.07.06-2.29.01-1.21,0-2.65-.02-4.3-.03-1.65-.06-3.41-.11-5.28-.04-1.87-.09-3.61-.15-5.23-.06-1.62-.13-2.97-.21-4.06-.08-1.09-.15-1.73-.21-1.92-.53-1.12-.99-1.81-1.36-2.06-.38-.25-.74-.28-1.09-.09s-.71.44-1.07.75c-.36.31-.8.44-1.3.37-.28,0-.56-.11-.84-.33-.28-.22-.56-.45-.84-.7-.28-.25-.56-.44-.84-.56-.28-.12-.57-.09-.88.09-.73.44-1.43.83-2.12,1.17-.69.34-1.36.53-2.01.56-.66.03-1.31-.12-1.97-.47-.38-.2-.76-.5-1.14-.9-.54-.57-1.31-.84-2.1-.83-.04,0-.09,0-.13,0h-2.01c-.73,0-1.47.03-2.24.09-.77.06-1.47.23-2.1.51-.63.28-1.15.72-1.55,1.31-.41.59-.61,1.42-.61,2.48,0,1.81.13,2.91.4,3.32.27.41.58.61.94.61.39,0,.81-.01,1.26-.05.45-.03.84.36,1.17,1.17.34.87.62,2.71.86,5.51s.43,6.07.57,9.81c.14,3.74.22,7.69.23,11.87.01,4.17-.02,8.08-.1,11.73-.08,3.64-.22,6.76-.4,9.34-.18,2.59-.41,4.16-.69,4.72-.28.56-.58.92-.9,1.07-.32.16-.66.31-1.01.47-.35.16-.7.41-1.05.75-.35.34-.69.95-1.03,1.82-.06,1.31.16,2.21.65,2.71.49.5,1.06.72,1.72.65.66-.06,1.32-.29,1.99-.7.36-.21.66-.45.91-.71.38-.39.93-.52,1.43-.29.36.16.77.33,1.23.49.87.31,1.77.55,2.71.7.94.16,1.82.14,2.64-.05.82-.19,2.87-.56,2.87-.56.36-.12.84-.22,1.45-.28.6-.06,1.22-.09,1.87-.09s1.32.02,1.95.05c.63.03,1.14.08,1.53.14.25.06.46.28.63.65.17.37.34.75.52,1.12.18.37.41.67.67.89.27.22.62.2,1.07-.05.11-.62.3-1.76.57-3.41.26-1.65.52-3.52.78-5.61.25-2.09.47-4.24.65-6.45.18-2.21.25-4.17.19-5.89-.06-1.71-.27-3.02-.65-3.92Z"/><path class="cls-1" d="M556.46,69.49c-.4-1.37-.66-2.86-.78-4.49l-3.35-6.35c-.21-.25-.47-.37-.78-.37h-1.01c-.37,0-.77-.08-1.21-.23-.44-.15-.92-.51-1.44-1.07-.21-.25-.47-.44-.76-.56-.29-.12-.58-.25-.87-.37-.29-.12-.56-.25-.8-.37-.25-.12-.44-.31-.6-.56-.25-.37-.43-.84-.55-1.4s-.34-1-.64-1.31c-.34-.31-.65-.45-.94-.42-.29.03-.58.03-.87,0-.29-.03-.57-.2-.85-.51-.27-.31-.53-1.03-.78-2.15-.7-2.86-.96-5.12-.76-6.77.2-1.65.66-2.88,1.38-3.69.72-.81,1.59-1.29,2.61-1.45,1.02-.15,2.04-.23,3.05-.23.98,1.62,1.79,2.88,2.43,3.78.64.9,1.18,1.87,1.6,2.9.43,1.03.78,2.31,1.05,3.83.28,1.53.53,3.69.78,6.49.06.69.1,1.18.11,1.5.02.31.24.47.67.47.34,0,.65-.58.94-1.73.29-1.15.53-2.6.73-4.35.2-1.74.34-3.67.44-5.79.09-2.12.13-4.13.11-6.03-.02-1.9-.08-3.57-.21-5-.12-1.43-.32-2.37-.6-2.8-.49,0-.94.25-1.35.75-.41.5-.83,1-1.26,1.5-.43.5-.88.87-1.35,1.12-.47.25-1,.16-1.58-.28-.27-.19-.48-.51-.62-.98-.14-.47-.27-.95-.39-1.45-.12-.5-.25-.97-.39-1.4-.14-.44-.33-.75-.57-.93-.73-.5-1.7-.54-2.89-.14-1.19.41-2.37,1.11-3.53,2.1-1.16,1-2.22,2.23-3.16,3.69-.95,1.46-1.56,3.01-1.83,4.63-.06.31-.16.89-.3,1.73-.14.84-.29,1.74-.46,2.71-.17.97-.32,1.85-.46,2.66-.14.81-.21,1.28-.21,1.4-.03,1.12.04,2.43.21,3.92s.4,3.04.71,4.63.69,3.12,1.15,4.58c.46,1.46.97,2.71,1.54,3.74.56,1.03,1.18,1.74,1.83,2.15.66.41,1.35.33,2.08-.23.95.62,1.96,1.25,3.05,1.87,1.08.62,2.15,1.32,3.19,2.1,1.04.78,2,1.68,2.89,2.71s1.58,2.27,2.09,3.74c.5,1.46.77,3.19.8,5.19.03,1.89-.26,4.08-.86,6.57-.07.28-.2.57-.37.81-1.61,2.26-3.09,3.57-4.44,3.93-1.42.37-2.7-.06-3.85-1.31-1.15-1.25-2.16-3.19-3.05-5.84-.89-2.65-1.62-5.75-2.2-9.3-.09-.56-.2-1.31-.32-2.24s-.28-1.81-.46-2.62c-.18-.81-.42-1.45-.71-1.92s-.65-.51-1.08-.14c-.27.25-.51,1.04-.71,2.38-.2,1.34-.37,2.96-.5,4.86-.14,1.9-.25,3.97-.32,6.21-.08,2.24-.12,4.38-.14,6.4-.02,2.02,0,3.83.05,5.42.05,1.59.12,2.66.21,3.22l.23,1.59c.03.25.11.45.23.61.12.15.24.23.37.23.34,0,.71-.36,1.12-1.07.41-.72.89-1.42,1.42-2.1.53-.68,1.16-1.18,1.88-1.5.72-.31,1.57-.09,2.54.65.46,1.68,1.01,2.85,1.67,3.5.66.65,1.37.96,2.13.93.76-.03,1.54-.34,2.34-.93s1.56-1.31,2.29-2.15c.73-.84,1.41-1.74,2.04-2.71.43-.66.8-1.26,1.12-1.82.26-.44.42-.92.49-1.43.11-.73.3-1.64.59-2.74.38-1.46.76-3.07,1.12-4.81.37-1.74.66-3.55.87-5.42.21-1.87.2-3.64-.05-5.33-.24-1.56-.57-3.02-.96-4.39Z"/><path class="cls-1" d="M415.55,12.79c20.82,0,36.38.01,36.38.01,1.19.04,2.35.59,3.51,1.05.55.22,1.04,2.07,1.47,2.48.48.46,1.07.93,1.7,1.38,1.33.96,2.87,1.25,4.47,1.25.88,0,1.78-.09,2.68-.19,1.05-.13,2.1-.24,3.15-.7,2-.89,2.4-3.69,5.67-4.88.47-.17.98-.26,1.48-.26,21.25-.04,41.74-.07,62.99-.12h0c2.08,0,3.58,9.67,5.18,9.67,1.26,0,4.35-9.12,5.74-9.13,7.1-.06,15.69-.15,23.83-.15,10.17,0,19.65.15,24.73.7,2.15.24,3.79,2.77,3.86,4.94.04,1.08.06,2.22.08,3.36.11,5.73-.02,13.41-.39,18.54-.21,2.94-.39,5.64-.43,6.8.21,10.01,1.53,16.81,1.29,26.82-.04,1.59-1.36,3.16-2.61,4.74-.82,1.03-1.11,2.37-.84,3.66.74,3.44,1.1,8.78,1.99,11.47.07.21.13.43.17.65,1.54,8.39,3.85,18.1-2.8,20.25-2.97.96-7.27,1.26-11.98,1.26-7.59,0-16.23-.77-22.03-.77-.37,0-.73,0-1.08,0-1.95.04-3.79.05-5.55.05-7,0-12.86-.24-19.95-.24-1.54,0-3.13.01-4.81.04,0,0,0,0,0,0-.81,0-2.79-2.07-5.64-2.07-.14,0-.28,0-.42.02-.72.05-1.67,2.12-2.39,2.13-.82.01-1.64.03-2.46.04-22.74.35-45.49.6-68.23.67-3.02,0-5.83.01-8.52.01-8.37,0-15.66-.04-25.05-.11-1.34,0-7.04-2.88-8.38-2.89,0,0-.01,0-.02,0-1.89,0-4.25,1.99-7.97,2.61-.71.12-1.44.16-2.16.16-.07,0-.15,0-.22,0-1.31-.01-2.62-.03-3.92-.04-9.86-.1-44.93-.21-54.79-.32-.73,0-5.6-3.87-6.33-3.87-2.36,0-4.37,3.82-5.16,3.82h0c-.99-.01-2.39-.05-3.38-.06-.91,0-1.82-.02-2.74-.03-12.11-.12-3.73-.41-18.92-.63-.04,0-.07,0-.11,0-1.97,0-7.98.62-9.37.62-.02,0-.04,0-.06,0-4.8-.07-7.93-.11-8.28-.12-16.03,0-130.21.4-171.26,1.06-1.08.02-2.15.03-3.21.03-4.49,0-8.78-.26-12.44-1.69-1.15-.45.37-7.06-.5-7.06-.03,0-.05,0-.08.02-3.04,1.22-4.46,1.74-5.6,2.13-.37.13-3.49,2.05-5.81,3.51-1.65,1.04-3.56,1.59-5.51,1.59-.05,0-.1,0-.14,0-6.8-.09-15.83-.3-27.39-.3-.97,0-1.95,0-2.95,0-.07,0-.15,0-.22,0-5.29,0-10.6-.6-15.9-1.1-.02,0-.04,0-.07,0-1.31,0-14.94,1.75-15.72,1.75-1.55,0-2.6.09-3.39.09-2.12,0-2.33-.62-5.16-5.16-.66-1.07-1.16-9.5-.39-12.83.85-3.7.41-5.99.04-20.96-.1-8.44,2.46-17.16,2.32-18.15-.03-1.77-1.52-8.49-1.72-11.69-.48-4.88-.89-6.64-.91-11.52,0-1.91.58-9.33,1.01-14.51.25-3,2.7-6.85,5.7-6.97,7.39-.28,20.5-.04,25.51-.29,6.2-.31,12.43-.4,18.67-.4,8.74,0,17.51.18,26.25.18,3.34.02,6.68.05,10.02.07.47,0,.94.08,1.39.24,3.5,1.21,7.01,3.19,10.51,4.4.46.16.95.24,1.43.24.22,0,.45-.02.67-.05,12.02-1.91,24.04-5.14,36.08-5.18.72,0,1.43,0,2.13,0,23.49,0,37.32,1.14,61.42,1.74,1.32.03,3.08,3.4,4.4,3.43,0,0,.01,0,.02,0,1.32,0,9.68-3.26,11-3.26,0,0,0,0,.01,0,1.47.03,7.2,2.73,8.66,2.75,0,0,.02,0,.02,0,2.02,0,3.04-4.12,5.06-4.12h.01c4.58.04,9.15.06,13.73.06,19.84,0,39.69-.32,59.54-.49,17.3-.15,65.37-.17,99.38-.17M415.55,0c-35.97,0-82.42.03-99.49.17-6.49.05-12.97.13-19.46.2-13.11.14-26.68.29-39.97.29-4.8,0-9.26-.02-13.62-.06-.01,0-.02,0-.03,0-.03,0-.06,0-.09,0-3.33,0-5.97,1.08-8,2.44-1.85-.62-3.58-1.03-5.5-1.07-.08,0-.18,0-.26,0h0c-2.47,0-4.56.62-8.24,1.85-1.8-1.09-4.07-1.95-6.85-2.02-9.18-.23-16.82-.53-24.21-.83-11.74-.47-22.82-.92-37.53-.92-.71,0-1.43,0-2.16,0-9.71.03-18.95,1.79-27.89,3.5-2.72.52-5.33,1.02-7.91,1.46-.73-.31-1.51-.67-2.31-1.03-1.9-.86-4.05-1.84-6.36-2.64-1.76-.61-3.61-.93-5.47-.94h-.11s-9.91-.07-9.91-.07c-.03,0-.06,0-.09,0-4.3,0-8.71-.05-12.98-.09-4.34-.04-8.83-.09-13.28-.09-7.49,0-13.62.13-19.31.42-2.12.11-6.54.11-10.82.12-5.17,0-10.51.01-14.55.17-5.22.2-10.18,2.93-13.61,7.49-2.47,3.29-4.02,7.26-4.34,11.19C.1,32.36.11,34.33.11,35.17c.02,4.25.3,6.68.62,9.49.1.9.22,1.88.34,3.06.17,2.33.66,5.14,1.14,7.86.13.75.31,1.75.43,2.5-.03.16-.06.32-.09.46-.77,3.78-2.2,10.81-2.11,18.08,0,.05,0,.11,0,.16.1,4.12.21,7.26.29,9.78.2,5.79.21,7.01-.01,7.99-.77,3.34-.78,7.64-.65,10.66.28,6.71,1.22,9.49,2.65,11.78l.56.91c2.69,4.35,6.37,10.3,15.46,10.3.47,0,1.02-.02,1.65-.04.54-.02,1.09-.04,1.75-.04,1.03,0,1.54-.05,7.81-.8,2.39-.28,6.14-.73,7.82-.9.38.04.75.07,1.13.11,4.79.46,9.75.94,14.93.94h.27c.98,0,1.95,0,2.91,0,8.69,0,16.03.12,21.92.22,1.89.03,3.65.06,5.29.08h.32c3.59,0,7.1-.83,10.29-2.41,1.05.71,1.99,1.14,2.55,1.36,5.8,2.26,11.9,2.57,17.09,2.57,1.13,0,2.27-.02,3.41-.03,40.17-.65,153.84-1.05,171-1.06.52,0,3.56.05,8.15.11h.24c1.1,0,2.47-.11,5-.31,1.37-.11,3.64-.3,4.36-.31,7.39.11,8.71.22,9.78.32,1.76.16,3.26.25,9.14.31h.55s2.18.03,2.18.03c.46,0,1.02.02,1.58.03.64.01,1.27.03,1.8.03.04,0,.09,0,.13,0,2.23,0,4.12-.54,5.68-1.3,1.67.8,3.48,1.32,5.67,1.35,5.1.05,16.94.11,28.39.17,10.64.05,21.65.1,26.41.15l3.93.04h.35c1.54,0,2.94-.11,4.27-.33,2.34-.39,4.33-1.05,5.89-1.67,2.94,1.2,5.36,2.11,8.28,2.13,9.76.07,17.01.11,25.15.11,2.71,0,5.52,0,8.56-.01,20.9-.07,43.27-.29,68.39-.67l2.46-.04c1.44-.02,2.81-.26,4.12-.72,1.17.38,2.55.65,4.12.65.07,0,.15,0,.22,0,1.52-.02,3.02-.04,4.59-.04,3.44,0,6.53.06,9.8.12,3.22.06,6.54.12,10.15.12,1.98,0,3.88-.02,5.8-.06.27,0,.55,0,.83,0,2.38,0,5.57.16,8.93.33,4.09.21,8.73.44,13.1.44,6.99,0,11.9-.58,15.91-1.88,3.76-1.21,12.57-5.45,13.28-18.55.27-4.95-.7-10.08-1.55-14.61-.1-.53-.2-1.05-.29-1.58-.14-.76-.33-1.51-.59-2.3-.2-.74-.49-2.86-.69-4.27-.09-.68-.19-1.38-.29-2.07,1.52-2.32,2.96-5.38,3.05-9.26.15-6.36-.26-11.51-.65-16.49-.28-3.47-.54-6.76-.63-10.53.06-1.32.29-4.55.39-6,.43-6.04.52-14.24.42-19.67-.02-1.2-.04-2.41-.08-3.54-.29-8.76-6.99-16.33-15.26-17.23-4.86-.53-13.16-.78-26.12-.78-6.44,0-13.2.06-19.16.11l-4.77.04c-1.4.01-3.04.24-4.74.91-2.46-1.23-4.76-1.45-6.08-1.45-18.3.04-36,.07-54.11.11l-8.91.02c-1.99,0-3.94.35-5.82,1.03-2.51.91-4.44,2.17-5.93,3.42-1.08-1.01-2.44-1.95-4.16-2.62l-.4-.16c-1.54-.62-4.11-1.67-7.42-1.77-.13,0-.26,0-.39,0,0,0-15.56-.01-36.39-.01h0Z"/></svg>