<?xml version="1.0" encoding="UTF-8"?><svg id="_レイヤー_1" xmlns="http://www.w3.org/2000/svg" viewBox="0 0 607.56 238.67"><defs><style>.cls-1{fill:#0d26b8;}</style></defs><path class="cls-1" d="M194.43,199.13c.27-1.52.07-3.2-.26-4.73-.5-2.32-1.19-4.62-1.99-6.86-1.39-3.9-1.48-7.76-.17-11.69.53-1.59.99-3.22,1.3-4.86.69-3.64-.99-5.65-4.68-5.62-1.68.02-3.35.35-5.03.34-3.45,0-6.9-.25-10.35-.2-4.31.06-8.69-.15-12.62,2.2-1.1.65-2.21.36-3.28-.22-3.04-1.65-6.28-1.78-9.52-.91-2.97.8-5.4,2.48-5.9,5.78-.8,5.29-.86,10.6.65,15.79,1.12,3.83,1.23,7.64.57,11.54-.52,3.05-1.25,6.13-1.19,9.18.07,3.86.77,7.72,1.32,11.56.47,3.27.7,6.49-.28,9.72-1.04,3.42,0,5.79,3.2,7.4,2.86,1.44,5.62,1.61,8.17-.2.78-.55,1.78-.69,2.67-.35,3.3,1.23,6.74,1.31,10.21,1.17,2.92-.12,5.83-.29,8.74-.36.92-.02,1.4-.46,1.93-1.12,2.13-2.7,3.06-2.82,5.98-.91.3.19.58.41.87.6,3.55,2.32,7.13,1.29,8.55-2.67.68-1.89,1.14-3.95,1.16-5.95.06-5.39-.12-10.78-.3-16.18-.13-4.15-.51-8.28.22-12.43ZM171.9,210.56c-.97.01-1.94,0-3.07,0-.13.23-.27.53-.45.8-1.35,2.07-1.84,2.04-3.07-.15-.19-.34-.53-.68-.88-.83-1.51-.66-1.96-1.97-2.12-3.41-.11-.96-.11-1.94-.07-2.9.06-1.5.23-2.99.29-4.49.03-.73.03-1.45.03-2.16,0-1.01.81-1.83,1.82-1.83h9.51c.92,0,1.7.69,1.81,1.6.37,3.04.77,5.79.92,8.56.2,3.47-1.21,4.77-4.73,4.81Z"/><path class="cls-1" d="M346.84,127.36c-.36-2.27-.38-4.6-.84-6.84-.48-2.41-1.11-4.83-2-7.12-1.47-3.81-4.13-6.53-8.13-7.8-1.08-.34-2.15-.83-3.12-1.41-.43-.25-1.62-.81-2.6-1.47-.62-.42-.17-1.39.55-1.18,1.36.38,2.92.83,3.57.96.35-2.62-1.08-4.4-2.76-5.76-1.97-1.6-4.17-3.01-6.47-4.09-5.48-2.59-11.36-3.83-17.35-4.57-6.63-.82-13.09-.76-18.76,3.55-.77.59-1.65,1.04-2.54,1.42-1.29.56-2.6,1.26-3.97,1.44-4.2.57-7.71,2.56-10.89,5.15-7.6,6.19-11.93,14.32-13.69,23.87-.18,1.01-.27,4.33-.08,5.35.77,4.08.7,5.92,1.53,9.98,1.23,5.98,3.74,11.96,6.63,17.42,3.3,6.22,8.19,10.35,15.3,11.51,2.5.41,4.78,1.33,6.69,3,3.49,3.04,7.61,3.51,11.96,3.07,2.27-.23,3.8-1.45,4.27-3.72.29-1.37.57-2.82.45-4.19-.34-4.02.75-7.67,2.23-11.32,2.07-5.1,3.64-10.34,3.91-15.9.08-1.57.35-3.16.74-4.69,1.47-5.73,3.01-11.45,4.55-17.17.06-.21.3-.37.45-.54,6.5,3.39,11.91,14.75,6.46,24.21-.98,1.7-1.47,3.35-1.35,5.27.04.63,1.12,1.69,1.26,2.91.05.47-.51.77-.88.48-.88-.68-1.97-1.58-2.28-1.83-2.05-1.64-3.2-1.5-4.35.82-.74,1.49-1.32,3.11-1.66,4.74-1.24,5.79-2.35,11.61-3.48,17.42-.1.49-.05,1.06.08,1.55.59,2.41,2.65,3.73,5.37,2.92,2.6-.77,5.15-1.89,7.49-3.25,4.77-2.76,8.83-6.46,12.85-10.22,4.24-3.96,6.78-8.55,6.41-14.5-.03-.44.06-.88.07-1.32.07-3.07.74-6.03,2.47-8.56,2.05-2.98,2.44-6.12,1.89-9.57ZM292.26,114.39c-.18,3.6-.47,7.2-.51,10.81-.02,1.55-.14,2.94-.94,4.3-1.71,2.92-2.91,6.02-3.23,9.44-.1,1.06-.07,3.46-.72,5.26-.39,1.07-1.9,1.12-2.37.07-.66-1.48-1.36-3.3-1.64-4-2.61-6.46-3.02-13.06-.59-19.65,1.48-4,4.2-6.69,8.28-7.92.87-.26,1.75.39,1.73,1.3,0,.13,0,.26-.01.39Z"/><path class="cls-1" d="M73.44,7.33c-.24-3.34,1.81-6.05,5.46-6.64,2.21-.35,4.51-.36,6.46.82,2.23,1.36,4.27,1.1,6.54.2,3.68-1.46,7.54-2.01,11.43-1.09,1.78.43,3.51,1.19,5.16,2,1.48.72,2.64.5,3.9-.46,4.32-3.28,9.96-1.23,10.96,4.1.43,2.31.29,4.74.22,7.12-.11,3.87-1.09,7.68-.53,11.63.18,1.23-.57,2.76-1.28,3.93-1.35,2.23-1.53,4.18-.43,6.7,1.07,2.45,1.38,5.29,1.72,7.99.54,4.22.62,8.48-.35,12.66-.63,2.71-1.56,5.29-4.64,6.46-1.17-.64-2.17-1.2-3.18-1.73-1.18-.62-2.19-.51-2.98.69-1.36,2.07-3.3,2.53-5.72,2.49-4.51-.09-9.02.31-13.53.27-4.14-.03-8.29-.29-12.42-.63-1.28-.1-2.58-.64-3.74-1.24-2.28-1.18-3.18-3.16-2.21-5.55.85-2.1,2.12-4.05,3.39-5.94,1.35-2.02,1.35-2.19-.31-4.01-.93-1.02-1.93-2.19-2.27-3.47-.8-2.97-1.61-6.02-1.68-9.06-.12-5.2.44-10.4.49-15.61.04-3.88-.19-7.76-.47-11.63Z"/><path class="cls-1" d="M52.35,60.23c-.62,5.92-2.19,11.64-3.75,17.35-1.71,6.25-3.01,12.6-3.2,19.07-.15,5.03.32,10.07.57,15.11.22,4.51.71,9.01.72,13.52,0,4.68-.37,9.37-.66,14.05-.19,3-.88,5.84-2.75,8.19-.4.51-.5,1.19-.27,1.79.84,2.2,1.73,4.31,2.35,6.49,1.36,4.8,1.66,9.57-.97,14.15-.36.63-.45,1.53-.37,2.27.13,1.22.4,2.45.8,3.61,1.12,3.33,1.31,6.65.94,10.18-.45,4.29-.32,8.65-.3,12.98.03,7.79.32,15.58.16,23.36-.07,3.23-.9,6.46-1.63,9.64-.31,1.32-1.14,2.59-1.94,3.73-.96,1.35-2.31,1.98-4.1,2.01-2.29.04-4.56.56-6.85.68-1.83.1-3.72.12-5.51-.22-2.27-.43-3.29-1.8-3.42-4.1-.1-1.85-.05-3.72-.05-5.58.04-8.85.21-17.7.06-26.55-.05-3,1.19-5.04,3.18-6.93,1.84-1.75,1.86-2.49-.31-3.83-1.64-1.01-2.14-2.24-2.18-4.11-.26-10.44-.67-20.88-1-31.32-.32-10.19.04-20.36,1.08-30.5.13-1.28.3-2.58-.44-3.77-.38-.61-1.31-.44-1.44.27-1.38,7.69-3.95,14.61-7.4,21.19-1.55,2.95-3.52,5.72-5.59,8.34-.92,1.16-2.47,2.01-3.91,2.54-1.79.66-3.01-.27-3.1-2.07-.4-7.51-.84-15.02-1.07-22.54-.09-2.99.29-6.01.54-9,.07-.86.26-1.81.7-2.53,2.63-4.19,5.27-8.39,8.1-12.44,1.26-1.79,2.94-3.3,4.52-4.84,1.99-1.93,3.26-4.1,3.34-6.97.11-4.49,1.57-8.66,3.19-12.8,3.81-9.71,7.57-19.44,11.21-29.22.65-1.76.82-3.8.79-5.71-.18-9.74.06-19.47.84-29.19.24-3,.41-6,.65-9,.17-2.16,1.22-3.88,2.94-5.13,1.51-1.1,3.24-1.66,4.97-.67,1.39.79,2.7.59,4.09.27,1.81-.41,3.59-1.02,5.42-1.24,5.3-.64,7.2.78,7.47,6.19,0,.09,0,.18,0,.26-.42,5.91-.81,11.82-1.26,17.73-.2,2.59-.9,5.06-2.36,7.23-.91,1.36-.76,2.7-.07,4.01,1.04,1.97,1.18,3.94.71,6.13-.54,2.5-.77,5.07-1.01,7.63-.27,2.93-.78,5.78-1.98,8.48-.24.56-.41,1.18-.47,1.79Z"/><path class="cls-1" d="M85.52,193.52c.65-.17,1.29-.39,1.67-.39,3.01-.02,6.02,0,9.03-.17,3.38-.19,4.81-1.59,5.08-4.95.16-2.02-.02-4.07-.06-6.1-.09-4.24-.3-8.49-.22-12.73.03-1.64.5-3.34,1.12-4.87,1.34-3.3,3.95-4.18,6.8-2.04,1.88,1.41,3.38,1.52,5.26.39.51-.31,1.15-.52,1.74-.56,2.91-.19,5.84-.48,8.74-.39,3.41.1,4.88,1.83,5.01,5.22.11,2.74.28,5.48.44,8.22.17,3.04-.19,5.96-1.53,8.78-1.59,3.34-1.56,6.97-.71,10.42,2.11,8.6,2.26,17.34,2.41,26.1.03,1.93-.16,3.89-.48,5.8-.97,5.82-4.39,8.84-10.88,9.2-3.33.19-6.76.01-10.03-.62-3.46-.66-6.84-.43-10.26-.23-4.24.25-8.47.66-12.72.84-6.81.27-13.63.43-20.44.56-1.58.03-3.19-.16-4.74-.46-2.69-.52-4.38-2.2-5.02-4.86-.79-3.29-1.19-6.61-.77-10.01.27-2.11.58-4.22.6-6.34.02-2.64-.21-5.29-.39-7.93-.08-1.23-.31-2.45-.44-3.68-.71-6.42.48-12.46,3.34-18.27,2.06-4.21,3.64-8.61,4.28-13.33.19-1.38,1.26-2.68,2.1-3.9.8-1.16,1.86-2.14,2.72-3.26.95-1.23,1.53-2.66,1.11-4.22-.8-3.03-.02-5.8,1.34-8.45,1.01-1.97,2.15-3.86,3.35-5.73,1.87-2.93,3.4-5.99,4.1-9.43.18-.88,1.3-2.56,2.01-3.94.17-.34-.19-.69-.53-.51-1.08.57-2.54,1.41-2.95,1.6-3.02,1.47-5.34,2.85-8.68,3.54-7.73,1.61-12.15-2.89-13.24-9.4-.81-4.88-.66-9.81.69-14.49,1.49-5.17.9-10.12.04-15.21-.53-3.12-.82-6.31-.83-9.47-.01-3.68,2.16-6.23,5.15-8.17,1.46-.95,2.84-.88,4.15.16.97.77,1.85,1.65,2.8,2.45,1.8,1.53,2.64,1.41,3.5-.75.77-1.92,2.35-2.63,4.01-2.4,5.52.76,10.95-.52,16.42-.43,1.24.02,2.48.02,3.72.13,2.6.23,5.07.86,6.97,2.81.99,1.03,1.96.94,3.09.3,1.3-.75,2.59-1.55,3.97-2.13,3.08-1.28,6.37-1.4,9.65-1.35,2.39.04,4.78.17,7.17.24,2.89.08,4.62,1.07,5.33,3.82.63,2.45.92,5.05.94,7.59.03,3.44-.41,6.89-.52,10.34-.07,2.29.1,4.58.15,6.87.03,1.24.21,2.49.05,3.7-.34,2.68-1.74,3.84-4.44,3.93-.19,0-1.11-.17-1.88-.3-.52-.09-.87.5-.56.93,1.22,1.62,3.62,1,4.56,1.34,2.23.82,2.35,1.15,2.32,3.48-.03,2.47.25,4.94.3,7.41.03,1.67.13,3.39-.21,5-.61,2.88-3.03,3.89-5.64,2.57-.47-.24-.92-.52-1.39-.78-2.07-1.15-2.34-1.18-3.6.8-.67,1.05-1.53,1.09-2.49,1.07-2.48-.04-4.96-.2-7.44-.2-3.42,0-4.53.9-5.56,4.11-.18.57-.52,1.1-.85,1.61-.29.44-.66.83-1.02,1.22-3.38,3.74-5.17,8.04-5.57,13.15-.56,7.17-3.4,13.71-6.95,19.86-1.13,1.96-2.14,3.85-2.39,6.09-.33,3.04-1.21,6.74-2.65,9.87-.24.53.24,1.1.8.96Z"/><path class="cls-1" d="M372.03,40.17c.7-4.44,3.44-7.02,7.68-8.14.85-.23,1.72-.41,2.59-.56,1.65-.27,2.81-1.26,3.36-2.71,1.33-3.51,3.68-6.27,6.38-8.69,5.24-4.7,10.13-9.64,13.25-16.07.51-1.04,1.3-1.38,2.37-1.28.79.08,1.58.23,2.37.24,2.28.04,4.57.02,6.85.02,1.58,0,3.2-.24,4.73.05,2.63.5,5.25.91,7.98.67,1.39-.12,2.72.59,3.42,1.79.81,1.4,1.58,2.72,2.48,3.96,1.45,1.98,3.12,3.81,4.77,5.63,1.8,1.98,2.7,4.35,3.08,6.92.31,2.09,1.28,3.58,3.4,3.82,5.93.66,9.38,4.89,13.01,8.85,1.01,1.09,1.84,2.4,2.48,3.74.47.99.64,2.19.71,3.31.38,5.9.6,11.82,1.04,17.72.21,2.8-.99,4.65-3.78,5.06-2.7.4-5.03-.43-7.12-2.16-2.57-2.13-5.15-4.24-7.87-6.2-2.97-2.13-5.56-4.89-7.97-7.66-1.89-2.17-3.85-4.13-6.26-5.67-3.69-2.36-6.32-5.6-7.99-9.65-1.37-3.32-6.04-3.86-8.41-1.16-3.26,3.73-6.68,7.32-10.07,10.93-.78.83-1.68,1.62-2.67,2.18-3.6,2.03-6.52,4.79-9.18,7.92-1.8,2.11-4.12,3.57-6.7,4.65-1.3.54-2.47,1.35-3.71,2.02-1.63.88-3.23,1.84-4.92,2.56-2.61,1.11-4.86-.23-5.03-3.06-.31-4.93-.52-9.88-.68-14.82-.04-1.4.22-2.82.44-4.21Z"/><path class="cls-1" d="M372.11,104.4c.71-3.3,3.36-4.26,6.57-2.95,1.06.43,1.99,1.19,3.05,1.61,1.42.56,2.05.44,2.49-.73.26-.69.88-1.19,1.62-1.25,4.97-.4,9.96-1.01,14.98.04,1.57.33,2.68.89,3.13,2.69.41,1.66,1.15,2.41,2.66,2.77.84.2,1.63-.52,1.49-1.36-.02-.14-.06-.29-.1-.42-1.31-4.03-2.71-8.04-4-12.08-.52-1.62-1.61-2.27-3.18-2.23-1.41.04-2.82.23-4.23.33-2.57.19-5,.26-7.27-1.59-2.51-2.05-3.62-4.44-3.46-7.6.19-3.62.31-7.24-.49-10.84-.28-1.26-.18-2.66-.01-3.96.47-3.62,2.92-5.95,6.55-6.16,3.1-.18,6.1-.03,8.79,2.09.96.76,2.73.96,4.01.73,2.77-.5,5.43-1.54,8.17-2.19,2.91-.68,5.85-1.32,8.81-1.68,2.8-.34,5.47.45,7.83,1.99,2.39,1.55,4.61,1.49,6.88-.18,2.04-1.5,4.21-2.04,6.73-1.13,4.02,1.45,5.53,3.45,5.24,7.78-.18,2.56-.75,5.08-.97,7.63-.13,1.55-.09,3.16.16,4.7.3,1.85.08,3.54-.85,5.11-.66,1.12-1.37,2.2-2.09,3.3-.56.85-1.54,1.33-2.55,1.24-2.95-.27-5.86-.35-8.69.48-1.22.36-2.6.94-3.4,1.86-2,2.3-1.43,5.1,1.27,6.7,1.43.85,3.04,1.4,4.62,1.97,1.57.57,3.22.95,4.81,1.48,2.91.97,5.76.4,8.63-.18,2.68-.54,5.37-1.06,8.06-1.56.52-.1,1.06-.14,1.58-.11,3.47.18,3.87.58,3.89,4.11.01,2.03-.16,4.07-.14,6.11.03,3.53.14,7.06.22,10.6.02.97.15,1.96.03,2.91-.36,2.94-2.47,4.74-5.4,4.73-3.09-.01-6.14.07-9.04-1.44-1.73-.9-3.51-.62-5.27.5-1.05.66-2.46.94-3.73,1.01-2.11.12-4.25-.13-6.37-.08-2.04.04-2.69.65-2.97,2.65-.97,6.74-1.45,13.47-.49,20.28.4,2.86.1,5.81.09,8.72-.02,4.42-.14,8.85-.09,13.27.08,6.54.22,13.09.45,19.63.06,1.87-.87,2.93-2.4,3.32-2.21.57-4.51,1.14-6.76,1.1-8.85-.14-17.7-.48-26.55-.82-4.53-.18-5.43-1.55-4.11-5.94.28-.93.56-1.86.88-2.78.66-1.93.58-3.66-.4-5.59-2.01-3.95-1.86-7.52,4.4-7.83,2.11-.1,4.23-.02,6.23-.02,1.4,1.72,1.47,3.96,3.49,4.54.2.06.42-.05.51-.24h0c.06-.13.05-.27-.01-.39-2.39-4.38-1.91-9.11-1.63-13.81.03-.51.28-1.02.52-1.48,2.09-4.05,2.08-8.32,1.53-12.69-.56-4.38-1.77-8.69-1.3-13.17.2-1.93.33-3.88.62-5.8.1-.65.59-1.23.88-1.86.35-.76.68-1.52,1.11-2.51.19-.42-.19-.88-.64-.79-2.22.48-4.04.88-5.87,1.23-7,1.35-14.09,1.14-21.17,1.25-1.33.02-2.66.02-3.98-.15-1.78-.23-2.57-1-2.7-2.72-.45-5.91-.87-11.82-1.18-17.73-.07-1.47.22-3,.53-4.46Z"/><path class="cls-1" d="M368.41,160.62c5.15-6.73,10.36-13.43,15.54-20.14,1.44-1.87,3.28-2.85,5.55-1.9,6.21,2.62,9.9,7.43,11.58,13.88.09.34.05.7.11,1.64-.16.39-.36,1.36-.89,2.11-1.85,2.58-3.76,5.12-5.74,7.6-1.2,1.51-2.48,2.99-3.91,4.28-.81.73-1.94,1.29-3.01,1.5-1.53.3-2.31,1.16-2.78,2.49-.35,1-.61,2.03-1.03,3-1.02,2.38-3.48,3.02-5.04.99-2.28-2.97-5.37-4.81-8.22-7.01-.83-.64-1.6-1.42-2.21-2.27-1.37-1.9-1.38-4.3.05-6.17Z"/><path class="cls-1" d="M331.84,24.49c2.9-.95,5.81-.87,8.48.61,2.05,1.13,3.95,1.14,6.09.38,4.05-1.45,8.27-1.85,12.55-1.51,1.04.08,2.1.33,3.08.7,1.83.69,2.82,2.03,2.77,4.07-.02,1.05.03,2.13.19,3.17.36,2.49-.01,4.61-1.85,6.6-2.18,2.35-1.99,5.4-1.45,8.32.59,3.13,1.43,6.2,2.08,9.32.23,1.12.31,2.28.35,3.42.06,1.8-.42,2.53-2.17,2.68-3.07.24-6.17.49-9.08-1.06-2.85-1.52-5.78-1.26-8.71-.07-2.9,1.17-5.93,1.81-9.06,1.62-1.21-.07-2.45-.36-3.6-.77-1.43-.51-2.49-1.62-2.47-3.16.05-5.47-.78-10.98.46-16.42.11-.48.25-.95.4-1.46.2-.67.92-1.05,1.58-.82,1.2.42,2.06,1.59,3.16,2.11,1.3.62,2.62-.87,1.88-2.1-.21-.35-.47-.7-.73-1.05-2.09-2.85-4.26-5.65-6.2-8.6-1.75-2.65-.8-5,2.24-5.99Z"/><path class="cls-1" d="M142.98,4.5c.23-1.48,1.26-2.74,2.71-3,2.72-.49,5.58-1.43,8.22.17,2,1.22,3.89,1.12,6.07.57,7.02-1.78,14.13-2.29,21.26-.58,1.44.35,2.82,1.01,4.15,1.68,1.79.9,2.43,2.49,2.18,4.44-.11.87-.3,1.74-.53,2.6-.67,2.41-.57,4.61.94,6.82.74,1.08.88,2.68.96,4.07.21,3.36.22,6.72.33,10.08.06,1.96-1.2,2.84-2.79,3.4-3.56,1.25-7.26,1.5-10.98,1.26-3.8-.25-7.52-.81-11.17-2.04-1.57-.53-3.49-.27-5.21-.04-2.27.3-4.48,1-6.74,1.38-6.6,1.12-9.12-.97-9.26-7.6,0-.44,0-.89,0-1.73.83-4.91.18-10.17-.52-15.45-.26-1.96.1-4.04.4-6.03Z"/><path class="cls-1" d="M194.04,148.81c.67,2.19.59,4.34.18,6.55-.46,2.47-1.69,4.3-5.79,4.09-1.41-.07-2.81-.5-4.21-.45-3.44.13-6.87.49-10.31.67-3.17.17-6.35.31-9.53.33-1.59.01-3.1-.4-4.44-1.44-1.47-1.13-3.23-1.37-5.05-.9-2.14.56-4.25,1.2-6.39,1.72-2.78.67-4.63-.05-5.62-2.19-.31-.69-.4-1.52-.44-2.29-.07-1.15-.02-2.3-.02-3.45-.03,0-.06,0-.1,0-.15-5.39-.39-10.79-.39-16.18,0-1.72.44-3.52,1.03-5.15.86-2.39,2.53-3.58,4.89-3.23,4.03.6,7.94-.31,11.91-.49,4.41-.2,8.82-.65,13.23-.94,2.65-.17,5.31-.27,7.96-.28.82,0,1.99.1,2.41.62,1.23,1.55,2.81,1.6,4.33,1.17,4.73-1.33,5.6.41,6.46,4.5.43,2.03.25,4.21.12,6.32-.14,2.47-.62,4.91-.75,7.38-.07,1.2.16,2.48.52,3.64Z"/><path class="cls-1" d="M192.71,103.04c.06,2.65.61,5.28.7,7.93.2,5.99-2.11,8.24-8.05,8.18-1.65-.02-3.14-.38-4.5-1.31-1.32-.89-2.65-1.77-4-2.62-2.22-1.4-2.92-1.15-3.89,1.37-.16.41-.31.83-.46,1.23-.42,1.17-1.49,1.98-2.74,2.08-4.13.33-8.05.67-11.98.94-3.32.23-6.55-.04-9.32-2.24-.36-.29-.96-.39-1.45-.38-2.91.02-3.99-.82-4.38-3.67-.26-1.93-.34-3.88-.53-5.82-.55-5.73-1.33-11.45-.75-17.21.16-1.65.62-3.3,1.17-4.87.48-1.36,1.48-2.37,2.97-2.82,1.48-.44,2.72-.26,3.87.88,2.35,2.32,3.7,2.52,6.2.49,1.73-1.4,3.5-1.77,5.63-1.68,2.91.13,5.85-.12,8.77.02,3.52.16,7.03.55,10.55.84,2.73.22,5.48.32,8.19.67,3.65.47,5.13,2.14,5.33,5.75.1,1.95-.17,3.81-.72,5.73-.6,2.07-.65,4.35-.6,6.53Z"/><path class="cls-1" d="M196.63,73.39c-.11.52-.29,1.02-.51,1.57-.29.72-1.15,1.04-1.83.67-.36-.19-.67-.36-.99-.51-1.87-.88-2.07-.9-3.24.82-.65.95-1.45,1.23-2.45,1.24-2.21.03-4.43-.05-6.64.07-6.44.35-12.67-.76-18.85-2.38-4.76-1.24-9.4-1.23-13.96.98-1.56.75-3.35,1.07-5.08,1.38-2.52.44-4.66-.68-6.68-2.03-1.22-.82-1.87-2.05-1.39-3.44,1.94-5.65.44-11.22-.27-16.81-.38-2.95-.26-5.83.68-8.65.66-2,1.27-2.6,3.29-2.2,2.98.58,5.8-.11,8.66-.52,9.05-1.31,18.14-1.7,27.27-1.52,1.11.02,2.24.38,3.31.73,1.09.36,2.11.91,3.16,1.35,1.78.75,3.57.87,5.42.18,1.82-.68,3.68-1.24,5.53-1.85,2.06-.67,2.91-.39,3.83,1.55.56,1.19,1.02,2.48,1.22,3.77,1.33,8.55,1.27,17.1-.47,25.6Z"/><path class="cls-1" d="M461.63,226.93c.34,1.82.77,3.65.85,5.49.15,3.15-1.6,5.22-4.71,5.72-1.3.21-2.65.25-3.97.18-2.91-.17-5.82-.39-8.72-.73-.93-.11-1.85-.55-2.7-.98-2.99-1.56-6.09-1.87-9.2-.6-3.76,1.53-7.75,1.77-11.69,2.06-3.82.27-25.97-3.63-29.55-3.44-2.2.12-7.34,3.9-11.57,1.61-1.84-1-3.6-2.31-5.07-3.8-3-3-5.79-6.22-8.65-9.35-.36-.39-.67-.82-1.03-1.22-2.48-2.81-3.43-5.8-1.81-9.49.83-1.9,1.02-4.08,1.38-6.16.01-.08.03-.16.04-.24.12-.92-1.05-1.41-1.63-.69-1.01,1.26-2.59,3.3-3.64,4.41-1.45,1.53-2.16,3.39-2.67,5.4-.2.79-.67,1.59-1.22,2.19-1.14,1.23-2.32,2.47-3.69,3.43-1.41,1-2.99,1.88-4.63,2.42-1.27.42-2.18.99-2.86,2.12-2.53,4.13-6.46,6.76-10.4,9.29-2.2,1.41-4.18.49-4.93-2.04-.95-3.21-.74-6.5-.34-9.75.59-4.74,1.27-9.47,2.09-14.17.54-3.09.38-5.84-1.38-8.62-2.2-3.47-1.29-7.2,2.1-9.53,1.88-1.3,3.95-2.38,6.04-3.3,2.38-1.05,3.69-2.8,3.77-5.29.09-2.81-.14-5.63-.26-8.44-.02-.53-.18-1.05-.27-1.57-.42-2.26,0-4.12,1.48-6.1,3.96-5.25,6.82-11.11,8.87-17.41,1.9-5.85,3.38-11.72,3.37-17.9-.02-10.01-2.53-19.35-6.91-28.35-2.36-4.84-5.73-8.39-10.26-11.09-2.12-1.27-4.13-2.74-6.08-4.26-2.1-1.63-3.27-3.63-2.23-6.47.76-2.06.43-4.19-.19-6.27-.1-.35-.2-.7-.3-1.08-.21-.8.29-1.61,1.09-1.79.62-.14,1.2-.26,1.77-.27,2.3-.07,4.61.04,6.91.03,1.5,0,2.69.54,3.8,1.57,2.15,2.01,3.31,2.24,5.61.49,3.59-2.74,7.59-2.63,11.65-2.09,3.13.42,5.15,2.55,5.25,5.75.09,3.07-.08,6.2-.58,9.23-.64,3.84-.08,7.56.23,11.35.58,7.04,1.48,14.08-.08,21.14-.64,2.88-.52,5.79.61,8.62.31.79.33,1.73.32,2.6-.23,16.91-.47,33.82-.78,50.72-.04,1.95.25,3.75,1.44,5.24,2.53,3.17,5.12,6.31,7.8,9.36,2.69,3.05,5.49,6.01,8.31,8.94.65.68,1.48,1.34,2.35,1.6,2.44.74,4.93,1.7,7.43,1.8,5.3.21,10.61-.14,15.92-.14,3.44,0,6.89.09,10.32.37,1.17.09,2.3.85,3.42,1.35,2.54,1.13,4.98,1.47,7.59-.01,2.45-1.38,5.24-1.39,8.02-1.31,5.04.14,10.08.15,15.11.23,1.59.02,3.19.02,4.77.19,4.06.43,6.25,2.8,6.06,6.92-.1,2.18-.53,4.42-1.26,6.46-.69,1.93-.88,3.74-.52,5.71Z"/><path class="cls-1" d="M466.22,168.18c-3.48.84-5.9,2.99-8.28,5.39-1.56,1.58-3.36,2.63-5.69,2.45-.67-.05-1.22-.55-1.31-1.22-.14-.97-.27-1.88-.49-2.77-.65-2.66-1.7-3.52-4.46-3.41-1.16.05-1.91-.34-2.34-1.3-.57-1.28-1.11-2.6-1.48-3.95-.54-1.96-1.42-3.55-3.27-4.59-.82-.46-1.5-1.24-2.11-1.99-1.82-2.25-1.94-4.79-.12-7.04,1.1-1.35,2.45-2.56,3.88-3.56,3.27-2.31,6.98-3.73,10.78-4.93,1.91-.6,3.41-.12,4.43,1.38,1.38,2.03,2.71,4.15,3.68,6.39.82,1.91,1.81,3.61,3.25,5.08,1.42,1.45,2.9,2.86,4.23,4.39,1.3,1.48,2.2,3.18,2.23,5.25.03,2.38-.63,3.88-2.91,4.43Z"/><path class="cls-1" d="M269.88,227.07c-.14-1.94-.46-3.87-.51-5.81-.15-5.84-.15-11.69-.33-17.53-.05-1.57-.33-3.18-.81-4.67-.68-2.15-2.31-3.29-4.6-3.36-1.06-.03-2.13.02-3.19,0-2.62-.06-3.82-.83-4.22-3.43-.36-2.33-.2-4.74-.25-7.11-.03-1.31.25-2.69-.05-3.93-.99-4.11-.93-8.24-.59-12.41.26-3.18.53-6.35.66-9.53.12-2.94-.32-5.8-1.58-8.52-1.14-2.49-2.13-5.05-3.13-7.6-1.82-4.64-3.23-9.38-3.03-14.44.06-1.59.44-3.16.47-4.74.1-5.18,1.53-9.98,4.14-14.38,1.93-3.27,4.22-6.33,6.28-9.52,1.25-1.93,2.55-3.85,3.54-5.91,1.68-3.47,2.29-7.01.24-10.67-.45-.81-.27-2.06-.17-3.08.15-1.48.75-2.95.74-4.42-.04-8.85-.14-17.7-.35-26.55-.07-2.95-1.42-4.3-4.35-4.73-2.1-.3-4.23-.33-6.34-.53-2.76-.26-3.92-1.75-3.54-4.48.07-.52.26-1.03.34-1.56.29-1.9.21-3.7-1.33-5.16-.22-.21-.64-.79-1.05-1.44-.25-.39.22-.84.6-.58.57.38,1.09.76,1.34.88.79.38,1.57,1.1,2.36,1.11,2.82.03,5.64-.14,8.46-.28,2.13-.11,3.04-1.55,3.53-3.39.55-2.1-.14-4.02-.81-5.95-.53-1.5-1.11-2.98-1.54-4.51-.35-1.27-.15-2.54.99-3.35,1.6-1.14,1.8-2.73,1.73-4.47-.09-2.21-.17-4.42-.28-6.62-.08-1.56-.85-2.45-2.4-2.7-1.66-.27-2.96.1-4.2,1.5-2.07,2.34-3.71,2.16-5.76-.17-.23-.27-.46-.54-.69-.84-.57-.73-1.47-1.14-2.4-1.09-2.47.13-4.98.21-7.46.54-3.28.44-4.36,1.85-4.36,5.22,0,2.93.41,5.8,1.45,8.59.45,1.21.67,2.59.62,3.88-.07,1.66-.56,3.3-.78,4.96-.29,2.18-.96,4.45-.62,6.54.43,2.66.38,5.28.37,7.92,0,5.07-1.31,6.26-6.4,5.94-.5-.03-.99-.22-1.21-.27-.45-6.73-.84-13.26-1.36-19.78-.48-6.01-.92-12.01.03-18.01.42-2.64-.42-3.77-3.02-4.23-.69-.12-1.42-.15-2.12-.11-2.3.12-4.6.46-6.89.4-2.46-.07-4.9-.53-7.35-.77-4.68-.45-7.25,1.74-7.3,5.89-.02,1.85,0,3.74.36,5.55.75,3.87.86,7.68.37,11.61-.3,2.41-.05,4.94.32,7.36.35,2.22,1.43,2.94,3.71,2.99,1.77.04,3.54-.14,5.31-.13,1.02,0,2.04.2,2.98.3.27,2.49.5,4.68.74,6.86.19,1.68,1.35,4.33,1.38,6.49,0,.58-.74.82-1.07.34-.29-.43-.55-.83-.6-.9-1.97-3.07-4.43-4.01-7.93-3.04-3.15.88-4.61,2.8-4.43,6.59.26,5.57.7,11.13,1.2,16.68.53,5.93.76,11.83-.23,17.73-.23,1.39-.41,2.82-.37,4.22.22,6.72.5,13.44.79,20.16.12,2.82.35,5.59-.31,8.43-.48,2.09-.46,4.42-.13,6.56.63,4.1,3.54,6.74,7.62,7.4.65.11,1.31.19,1.99.28,1.2.15,2.12,1.16,2.14,2.37.05,2.44.14,4.78-.09,7.08-.32,3.24-1.01,6.46-1.76,9.64-1.09,4.58-2.19,9.11-1.42,13.89.18,1.1-.02,2.31-.24,3.43-.96,4.86-1.91,9.72-3.03,14.54-1.6,6.85-2.87,13.69-1.59,20.75.11.61-.17,1.38-.45,1.98-3.49,7.46-5.32,15.35-5.97,23.53-.1,1.22,0,2.49.23,3.7.49,2.65,2.22,3.34,4.43,1.84.66-.45,1.25-.98,1.89-1.46,1.11-.83,2.18-.9,3.4-.05,1,.7,2.14,1.25,3.29,1.69,3.81,1.45,6.87.36,8.72-3.21.76-1.48,1.3-3.11,1.69-4.72,1.32-5.49,1.15-11.07.87-16.65-.06-1.23-.16-2.5.08-3.69.86-4.24,1.76-8.48,2.84-12.67,1.29-5.02,2.21-10.09,1.24-15.22-.55-2.92-.23-5.51.63-8.3,1.3-4.2,2.46-8.48,1.81-13.01-.47-3.3-.08-6.59,1.17-9.66,1.2-2.94,1.64-5.94,1.52-9.07-.06-1.68-.17-3.36-.21-5.04,0-.17.02-.34.05-.52.1-.53.79-.72,1.12-.28.42.57.54,1.19.67,1.81.35,1.73.6,3.5,1.1,5.19.81,2.78.95,5.53.52,8.4-.54,3.57-1.17,7.15-.26,10.81.32,1.32.15,2.86-.17,4.21-.61,2.54-.4,4.89.76,7.22.39.79.69,1.64.91,2.49.37,1.41.22,2.76-.44,4.12-.57,1.16-1.1,2.42-1.25,3.68-.38,3.25-.7,6.52-.74,9.79-.18,11.86-.22,23.73-.33,35.59-.06,6.42,5.07,9.89,10.97,7.42,1.12-.47,2.35-.92,3.53-.93,2.47-.02,4.93.28,7.4.4,2.38.12,4.78.39,7.14.22,2.84-.2,4.27-1.74,4.64-4.56.12-.95.05-1.94-.03-2.91ZM241.39,81.31c-.53,1.83-.64,3.82-.69,5.75-.09,3.8.08,7.6-.04,11.4-.04,1.36-.61,2.69-.88,3.81-3.2.59-5.79,1.07-8.39,1.56-.35.06-.68.23-1.02.27-2.11.24-3.54-1.06-2.75-2.97,1.45-3.48.39-6.59-.68-9.77-.77-2.27-.62-4.44-.04-6.76.59-2.37.67-4.86.96-7.3.14-1.18-.25-2.16-.9-3.19-1.33-2.14.29-4.97,2.72-4.43,3.19.72,4.94-1.06,6.79-2.89.79-.78,1.47-1.65,2.69-1.14,1.25.53,1.05,1.7.97,2.76-.15,1.8.15,3.49.9,5.15,1.14,2.52,1.14,5.07.37,7.76Z"/><path class="cls-1" d="M605.95,64.91c.3-1,.69-2.01.79-3.04.27-2.72.44-5.46.57-8.2.13-2.64.37-5.31.18-7.94-.24-3.28-2.36-4.8-5.64-4.54-1.85.14-3.7.2-5.56.21-5.39.04-10.78,0-16.17.07-3.92.05-7.78.66-11.46,1.99-4.07,1.46-7.06-.22-9.74-2.9-.66-.66-1-1.85-1.12-2.83-.29-2.44-.39-4.91-.53-7.37-.03-.48.04-.99.16-1.46.18-.71.56-1.38.66-2.09.29-2.2-.64-4.15-1.39-6.14-.53-1.41-.8-2.78-.47-4.38.86-4.15,1.56-8.34,2.11-12.54.32-2.45-.49-3.11-2.97-3.2-3-.12-6-.43-9-.43-1.91,0-3.92.12-5.72.7-2.06.67-3.96.72-5.96.12-.76-.23-1.51-.52-2.28-.71-2.86-.69-4.13.12-4.73,3.03-.21,1.04-.42,2.11-.39,3.15.2,6.72.42,13.44.74,20.16.1,2.07,1.12,4.02.64,6.21-.46,2.07-.6,4.2-.95,6.3-.01.08-.03.16-.05.24-.24,1.03-1.2,1.75-2.26,1.71-1.29-.05-2.6-.33-3.33.92-.38.65-1.18.91-1.84.56h-.01c-3.56-1.9-7.27-2.04-11.06-.91-1.69.51-3.34,1.16-5.01,1.74-3.57,1.24-7.02,1.23-10.56-.39-3.49-1.6-7.27-2.21-11.13-1.95-3.27.22-5.29,2.01-5.72,5.2-.28,2.09-.43,4.23-.32,6.33.16,3.09.56,6.17.95,9.24.11.85.39,1.73.78,2.49,1.11,2.14,1.42,4.38,1,6.7-.46,2.52-1.07,5.02-1.57,7.53-.72,3.63-1.01,7.18,1.44,10.41.9,1.19.88,2.63.42,4.07-.66,2.11-1.43,4.2-1.84,6.36-.53,2.77-.97,5.58.85,8.19.44.63.47,1.71.33,2.53-.18,1.12-.79,2.16-1.02,3.28-.2,1-.4,2.14-.12,3.08,2.04,6.74,2.06,13.61,1.47,20.53-.48,5.64-.95,11.28-1.37,16.93-.16,2.24.52,3.14,2.73,3.38,1.57.16,3.19.12,4.77-.06,4.21-.49,8.4-1.3,12.62-1.62,2.61-.2,5.38-.17,7.87.53,2.84.79,5.56.72,8.38.55,2.82-.17,5.66-.39,8.48-.3,3.72.12,5.31,2.26,4.92,6-.12,1.1-.02,2.27.18,3.36.94,5.16,1.54,10.31.26,15.52-.68,2.77-.82,5.55-.33,8.42.42,2.42.59,4.94.47,7.39-.18,3.88-.72,7.74-1.05,11.62-.48,5.74-.82,11.47.88,16.93.29.95.04,1.99-.68,2.67-.37.35-.66.7-.71,1.08-.72,4.66-.33,9.16,6.12,9.29,3.43.07,6.88-.39,10.3-.73,4.31-.43,8.61-1.41,12.98-.18.68.19,1.36-.3,1.37-1.01v-.03c0-4.06.38-8.18-.19-12.17-.68-4.76-1.08-9.45-.67-14.26.27-3.15.38-6.38,0-9.51-.98-8.24-.57-16.44.36-24.63.72-6.32,2.12-12.57,1.56-19-.01-.14.17-.29.4-.7,15.21.5,30.58-1.12,45.81.98,1.38-2.46,1.96-4.9,1.82-7.39-.2-3.52-.41-7.09-1.13-10.53-1.16-5.55-1.2-11.07-.58-16.64.62-5.54,1.49-11.06,1.97-16.61.23-2.7.35-5.61-.43-8.14-1.22-3.98-1.09-7.82-.47-11.79.6-3.89.71-7.71-1.05-11.45-.6-1.27-.64-2.98-.43-4.41.28-1.89,1.09-3.71,1.64-5.56ZM528.06,91.82c-.1,8.4-.17,16.8-.28,25.2-.02,1.68,0,3.38-.31,5.01-.41,2.15-1.52,2.97-3.72,3-3.43.06-6.86.02-10.28.06-3.14.04-5.81-2.27-5.11-5.8.44-2.2-.02-4.57-.06-6.86-.06-3.73-.33-7.4-2.01-10.85-.69-1.41-.4-2.98.4-4.34,1.18-1.99,1.47-4.14,1.43-6.38-.05-2.83-.1-5.66-.12-8.49,0-1.32.02-2.65.13-3.97.15-1.77,1.03-2.9,2.89-3.29,2.03-.43,3.18-2.23,2.84-4.26,0,0,0-.02,0-.02-.2-1.09,1.2-1.7,1.83-.8.46.64.9,1.3,1.3,1.99.89,1.56,2.07,2.32,3.9,2.05.69-.1,1.42-.05,2.12.04,3.61.46,5.19,2.11,5.24,5.77.05,3.98-.13,7.96-.18,11.94ZM581.24,128.98c-.17.45-.73.59-1.1.28-.84-.71-1.46-1.23-2.08-1.73-1.77-1.43-3.58-2.43-6.05-1.77-1.69.46-3.5.53-5.26.63-.95.05-2.03.02-2.84-.39-1.99-1.04-3.39-.3-4.65,1.17-.32.37-.83,1.33-1.36,2.33-.46.85-1.76.57-1.81-.39-.18-3.11.29-6.73.74-9.11.36-1.89.75-3.83.7-5.74-.21-7.77-.67-15.52-.86-23.29-.08-3.26.23-6.53.47-9.79.08-1.13.41-2.26.79-3.34.9-2.59,2.77-4.21,5.51-4.26,3.52-.07,7.06.07,10.57.38,2.27.19,2.74.91,3.25,3.17.84,3.69.41,7.4.18,11.1-.21,3.36-.34,6.64.28,10.02.45,2.46-.14,5.1-.17,7.66-.02,2.19.11,4.39.18,6.59.01.35.14.7.15,1.05.15,4.26,1.69,8.08,3.8,11.68.83,1.42.09,2.39-.44,3.77Z"/></svg>